<svg xmlns="http://www.w3.org/2000/svg" version="1.2" viewBox="63.4 193.69 705.4 152.71"><path d="M229.7 275.2c-5.2 0-9.9-1.2-13.4-3.1l1-6.6c3.2 2.1 7.7 4.1 12.5 4.1 5 0 8.5-2.7 8.5-7.3 0-4.4-1.9-6.2-9.1-9.4-9-4.1-12.4-7.1-12.4-13.9 0-7.7 5.9-12.6 14.5-12.6 4.6 0 8.1 1.1 10.9 2.7l-1.1 6.5c-2.6-2-6.2-3.5-10-3.5-5.5 0-7.9 2.9-7.9 6.4 0 3.7 1.8 5.4 9.1 8.7 9.2 4.2 12.4 7.4 12.4 14.6 0 8.2-6.1 13.4-15 13.4zM270 274.7l-.7-4.4c-2.6 2.6-6.2 5.1-11.6 5.1-6 0-9.7-3.9-9.7-9.5 0-8.3 5.9-11.6 20.8-12v-2c0-4.2-2.5-5.6-6.3-5.6-4 0-7.8 1.2-11.4 2.8l-.8-5.3c3.9-1.6 7.6-2.8 12.8-2.8 8 0 11.9 3.3 11.9 10.6v23.1zm-1.2-16.1c-12.8.5-14.8 3.5-14.8 6.9 0 2.7 1.8 4.8 5 4.8 3.6 0 7-1.8 9.8-4.7zM509.9 274.7l-.7-4.4c-2.6 2.6-6.2 5.1-11.6 5.1-5.9 0-9.7-3.9-9.7-9.5 0-8.3 5.9-11.6 20.9-12v-2c0-4.2-2.5-5.6-6.3-5.6-4.1 0-7.9 1.2-11.4 2.8l-.9-5.3c4-1.6 7.7-2.8 12.8-2.8 8 0 11.9 3.3 11.9 10.6v23.1zm-1.2-16.1c-12.8.5-14.7 3.5-14.7 6.9 0 2.7 1.8 4.8 4.9 4.8 3.6 0 7.1-1.8 9.8-4.7zM294.5 275.4c-8.9 0-15.4-6.2-15.4-17.2 0-11.3 6.9-17.2 15.5-17.2 4.8 0 8.3 1.2 10.8 3l-.9 6.1c-3.1-2.5-6.2-3.7-10-3.7-5.4 0-9.2 4.1-9.2 11.7 0 8.1 4.1 11.9 9.9 11.9 3.3 0 6.2-.8 9.6-3.7l.9 5.5c-3.4 2.6-6.8 3.6-11.2 3.6zM327.6 246.9c-5.2-.1-8.9 3.3-11.1 7.7v20.1h-6.2v-33h4.9l1.1 6.1c2.3-3.7 6.3-6.8 11.1-6.8 1.8 0 2.4.2 2.4.2l-.7 5.8s-.6-.1-1.5-.1zM537.5 246.9c-5.1-.1-8.9 3.3-11.1 7.7v20.1h-6.1v-33h4.9l1 6.1c2.4-3.7 6.3-6.8 11.2-6.8 1.7 0 2.3.2 2.3.2l-.7 5.8s-.5-.1-1.5-.1zM345.5 275.4c-8.5 0-15.2-5.2-15.2-17.3 0-10.6 6.2-17.1 14.5-17.1 9.6 0 14 7.4 14 16.5v1.3h-22.4c.2 7.7 3.9 11.3 9.6 11.3 4.8 0 7.2-1.9 10.8-4.8l.8 5.2c-3.5 2.8-6.6 4.9-12.1 4.9zm-8.8-21.2h15.9c-.8-5.3-3.1-8.4-7.9-8.4-3.8 0-7 2.8-8 8.4zM471.8 275.4c-8.5 0-15.2-5.2-15.2-17.3 0-10.6 6.2-17.1 14.5-17.1 9.6 0 14 7.4 14 16.5v1.3h-22.4c.2 7.7 3.9 11.3 9.6 11.3 4.8 0 7.2-1.9 10.8-4.8l.8 5.2c-3.5 2.8-6.6 4.9-12.1 4.9zm-8.8-21.2h15.9c-.8-5.3-3.1-8.4-7.9-8.4-3.8 0-7 2.8-8 8.4zM693.2 275.4c-8.5 0-15.3-5.2-15.3-17.3 0-10.6 6.3-17.1 14.6-17.1 9.6 0 14 7.4 14 16.5v1.3h-22.4c.2 7.7 3.9 11.3 9.6 11.3 4.8 0 7.2-1.9 10.8-4.8l.8 5.2c-3.5 2.8-6.6 4.9-12.1 4.9zm-8.8-21.2h15.9c-.8-5.3-3.1-8.4-7.9-8.4-3.8 0-7.1 2.8-8 8.4zM755.5 275.4c-8.6 0-15.3-5.2-15.3-17.3 0-10.6 6.2-17.1 14.5-17.1 9.6 0 14.1 7.4 14.1 16.5v1.3h-22.4c.2 7.7 3.8 11.3 9.6 11.3 4.7 0 7.1-1.9 10.7-4.8l.9 5.2c-3.6 2.8-6.7 4.9-12.1 4.9zm-8.9-21.2h15.9c-.7-5.3-3.1-8.4-7.9-8.4-3.8 0-7 2.8-8 8.4zM387 274.7l-.8-4.8c-2.5 3-5.8 5.5-10.7 5.5-7.1 0-13-5.2-13-16.3 0-12 6.9-17.8 14.9-17.8 3.3 0 6.3.6 8.3 1.4v-16.6l6.2-1.3v49.9zm-1.2-26.4c-2.6-1.3-4.6-1.8-8.1-1.8-5.2 0-9 4.2-9 12.3 0 7.3 3.3 11.1 7.7 11.1 3.8 0 6.7-2.3 9.4-5.8zM445.2 274.7v-22h-24.1v22h-6.5V227h6.5v19.7h24.1V227h6.5v47.7zM556.7 275.2c-5.8 0-9.6-2-9.6-8.7v-19.6h-5v-5.2h5V231l6-1.2v11.9h7.1l.9 5.2h-8v18.5c0 2.7 1.1 4.4 4.6 4.4 1.1 0 2.1-.1 2.8-.2l.8 5.2c-1 .2-2.4.4-4.6.4zM601.2 275.6c-13.5 0-22.1-10-22.1-24.7 0-14.8 8.8-24.8 22.2-24.8 5.7 0 9.9 1.4 13.5 3.9l-.9 6.6c-3.5-2.6-7.6-4.6-12.7-4.6-9.7 0-15.4 7.3-15.4 18.8s5.8 18.8 15.4 18.8c5.1 0 9.6-2 13.4-4.8l1 6.1c-3.7 2.7-9 4.7-14.4 4.7zM633.8 275.4c-8.8 0-15.1-6.3-15.1-17.2 0-10.8 6.3-17.2 15.1-17.2 8.9 0 15.3 6.4 15.3 17.2 0 10.9-6.4 17.2-15.3 17.2zm0-29.2c-5.9 0-8.9 5.1-8.9 12 0 6.8 3.1 12.1 8.9 12.1 6.1 0 9.1-5.2 9.1-12.1 0-6.8-3.2-12-9.1-12zM654 274.7v-48.6l6.1-1.3v49.9zM667 274.7v-48.6l6.2-1.3v49.9zM723 287.3c-8.6 0-15.4-2.7-15.4-8.5 0-3.4 2.3-6.1 6.9-8.6-1.4-1-2-2.2-2-3.4 0-1.6 1.2-3.1 3.4-4.5-3.7-1.9-6.1-5.3-6.1-9.8 0-7.1 5.9-11.5 12.6-11.5 3.3 0 6.3 1 8.5 2.8l8.4-2.6.9 5.5-6.3.7c.8 1.5 1.3 3.2 1.3 5.1 0 7-5.9 11.3-12.6 11.3q-1.4 0-2.5-.2c-1 .6-1.7 1.4-1.7 2 0 1.2 1.2 1.5 7 2.5l2.4.4c6.9 1.3 11.3 3.5 11.3 8.6 0 6.9-7.5 10.2-16.1 10.2zm-4-15.2c-3.8 2-5.6 3.9-5.6 6.2 0 2.6 3.4 4.5 9.9 4.5 6.4 0 10-2.2 10-4.9 0-2-1.5-3.4-6.2-4.3l-4-.7c-1.8-.3-2.8-.4-4.1-.8zm3.4-26.6c-4.1 0-6.7 3.2-6.7 7.2 0 3.8 2.6 6.8 6.7 6.8 4.2 0 6.9-3.1 6.9-7.1 0-3.9-2.8-6.9-6.9-6.9zM226.1 290.2h2.6l9.7 22.4-2.4.5-3.2-7.5h-10.9l-3 7.3h-2.6zm-3.3 13.4h9.1l-4.5-10.8zM249.9 313.2c-5.8 0-9.3-3.5-9.3-8.7v-14.1h2.5v13.8c0 4.1 2.3 7 6.8 7s6.9-2.6 6.9-6.9v-13.9h2.5v13.9c0 5.4-3.6 8.9-9.4 8.9zM274.9 313.3c-6.7 0-11.3-4.7-11.3-11.6 0-7 4.6-11.7 11.5-11.7 2.8 0 5.1.7 6.9 1.9l-.4 2.3c-1.9-1.3-4.1-2.2-6.6-2.2-5.4 0-8.8 3.9-8.8 9.6 0 5.8 3.4 9.6 8.8 9.6 2.6 0 5-.9 7.1-2.3l.3 2.2c-1.9 1.2-4.6 2.2-7.5 2.2zM301.8 313.1l-12.7-11.8v11.6h-2.5v-22.5h2.5v10.2l11.5-10.2h3.2l-11.9 10.5 12.6 11.7zM307.8 312.9v-22.5h2.5v20.5h9.6l.3 2zM332.6 290.2h2.6l9.7 22.4-2.5.5-3.1-7.5h-10.9l-3.1 7.3h-2.5zm-3.3 13.4h9.1l-4.5-10.8zM365.4 312.9l-14.5-19v19h-2.3v-22.5h2.3l14 18.3v-18.3h2.4v22.5zM379.8 312.9h-6.6v-22.5h6.7c8.3 0 12.9 4.5 12.9 11.2 0 6.9-5 11.3-13 11.3zm.1-20.5h-4.3v18.5h4.3c6.3 0 10.4-3.1 10.4-9.3 0-6-4.2-9.2-10.4-9.2z" fill="#fff"/><path d="M168.6 213.2s-9 4.3-18 4.3c-8.9 0-17.3-4.3-17.3-4.3s-8.4 4.3-17.4 4.3c-8.9 0-17.9-4.3-17.9-4.3s-2.3 5.4-7 9.5c-4.6 4.1-10 6.6-10 6.6s7.3 9.3 7.3 22.7c0 13.4-7.3 19.1-7.3 34.2 0 17.7 16.5 27.3 34.4 31.1 14.7 3.1 17.9 7.3 17.9 7.3s3.2-4.2 17.9-7.3c17.9-3.8 34.4-13.4 34.4-31.1 0-15.1-7.4-20.8-7.4-34.2 0-13.4 7.4-22.7 7.4-22.7s-5.4-2.5-10-6.6c-4.7-4.1-7-9.5-7-9.5zm-35.3 4c3 1.3 10 3.9 17.3 3.9 6.4 0 12.7-2 16.3-3.3 1.3 2.2 3.4 5.1 6.3 7.6 2.5 2.2 5.2 4 7.2 5.2-2.4 4.2-5.8 11.9-5.8 21.4 0 7.2 1.9 12.3 3.8 17.2 1.8 5.1 3.6 9.8 3.6 17 0 7-3.1 13.1-9.2 17.9-5.4 4.4-13.1 7.7-22.4 9.6-9.2 2-14.3 4.4-17.1 6.3-2.8-1.9-7.9-4.3-17.2-6.3-9.2-1.9-16.9-5.2-22.4-9.6-6-4.8-9.1-10.9-9.1-17.9 0-7.2 1.7-11.9 3.6-17 1.8-4.9 3.7-10 3.7-17.2 0-9.5-3.4-17.2-5.8-21.4 2.1-1.2 4.8-3 7.3-5.2 2.9-2.5 4.9-5.4 6.2-7.6 3.7 1.3 10 3.3 16.3 3.3 7.4 0 14.3-2.6 17.4-3.9z" fill="#ec1c24"/><path d="M177.5 267c-1.5-4.3-2.9-8.9-2.9-15 0-9.5 3.4-17.2 5.8-21.4-2-1.2-4.7-3-7.2-5.2-2.9-2.5-5-5.4-6.3-7.6-3.6 1.3-9.9 3.3-16.3 3.3-7.3 0-14.3-2.6-17.3-3.9V267z" fill="#0e4d91"/><path d="M177.5 267h-44.2v53c2.8-1.9 7.9-4.3 17.1-6.3 9.3-1.9 17-5.2 22.4-9.6 6.1-4.8 9.2-10.9 9.2-17.9 0-7.2-1.8-11.9-3.6-17q-.5-1.1-.9-2.2z" fill="#75bce7"/><path d="m89 267-.8 2.2c-1.9 5.1-3.6 9.8-3.6 17 0 7 3.1 13.1 9.1 17.9 5.5 4.4 13.2 7.7 22.4 9.6 9.3 2 14.4 4.4 17.2 6.3v-53z" fill="#0e4d91"/><path d="M133.3 217.2c-3.1 1.3-10 3.9-17.4 3.9-6.3 0-12.6-2-16.3-3.3-1.3 2.2-3.3 5.1-6.2 7.6-2.5 2.2-5.2 4-7.3 5.2 2.4 4.2 5.8 11.9 5.8 21.4 0 6.1-1.3 10.7-2.9 15h44.3z" fill="#75bce7"/><path d="M133.3 249.8c8.2 0 14.9 7.7 14.9 17.2s-6.7 17.2-14.9 17.2-14.9-7.7-14.9-17.2 6.7-17.2 14.9-17.2z" fill="#fefefe"/><path d="M133.3 248.4c-9 0-16.3 8.3-16.3 18.6 0 10.2 7.3 18.6 16.3 18.6s16.2-8.4 16.2-18.6c0-10.3-7.2-18.6-16.2-18.6zm0 1.4c8.2 0 14.9 7.7 14.9 17.2s-6.7 17.2-14.9 17.2-14.9-7.7-14.9-17.2 6.7-17.2 14.9-17.2z" fill="#0e4d91"/><path d="M137.4 279.4h-8.2v-7.8h.6c.6 0 1.1-.5 1.1-1.1 0-.6-.5-1.2-1.1-1.2-.6 0-1.2.6-1.2 1.2v.6h-6.9v-8.2h6.9v.6c0 .6.6 1.1 1.2 1.1s1.1-.5 1.1-1.1c0-.7-.5-1.2-1.1-1.2h-.6v-7.8h8.2v7.8h-.6c-.6 0-1.2.5-1.2 1.2 0 .6.6 1.1 1.2 1.1s1.1-.5 1.1-1.1v-.6h6.9v8.2h-6.9v-.6c0-.6-.5-1.2-1.1-1.2-.6 0-1.2.6-1.2 1.2s.6 1.1 1.2 1.1h.6zm-7-1.2h5.8v-5.5c-1-.2-1.8-1.2-1.8-2.2 0-1.3 1.1-2.4 2.4-2.4 1.1 0 2 .8 2.2 1.8h4.6v-5.8H139c-.2 1-1.1 1.7-2.2 1.7-1.3 0-2.4-1.1-2.4-2.3 0-1.1.8-2 1.8-2.3v-5.5h-5.8v5.5c1 .3 1.7 1.2 1.7 2.3 0 1.2-1 2.3-2.3 2.3-1.1 0-2-.7-2.3-1.7h-4.6v5.8h4.6c.3-1 1.2-1.8 2.3-1.8 1.3 0 2.3 1.1 2.3 2.4 0 1-.7 2-1.7 2.2z" fill="#0e4d91"/><path d="M98 287.9c1.2-1.2 2.4-2.3 4.3-2.3s3.1 1.1 4.3 2.3c1.1-1.2 2.4-2.3 4.3-2.3s3.1 1.1 4.2 2.3c1.1-1.1 2.3-2.2 4-2.3-.9-3.7-3.7-5.4-7.2-5.4-1.9 0-4.3 1.7-5.3 2.5-1-.8-3.4-2.5-5.3-2.5-3.5 0-6.3 1.7-7.3 5.4 1.8.1 2.9 1.2 4 2.3zM115.8 288.6c1 1 2 1.9 3.4 2q.3-1 .3-2.1t-.2-2c-1.5.1-2.5 1-3.5 2.1zM97.4 288.6c-1-1.1-2.1-2-3.6-2.1q-.1.9-.1 2t.2 2.1c1.5 0 2.5-1 3.5-2z" fill="#ec1c24"/><path d="M110.9 286.5c-1.6 0-2.6 1-3.7 2.1 1.1 1.1 2.1 2.1 3.7 2.1 1.5 0 2.6-1 3.6-2.1-1-1.1-2.1-2.1-3.6-2.1z" fill="#ec1c24"/><path d="M115.1 289.2c-1.1 1.2-2.3 2.4-4.2 2.4-1.9 0-3.2-1.2-4.3-2.4-1.2 1.2-2.4 2.4-4.3 2.4s-3.1-1.2-4.3-2.4c-1 1.1-2.2 2.2-3.8 2.3 2.3 7.4 12.4 12.5 12.4 12.5s10.1-5.1 12.4-12.5c-1.7-.1-2.8-1.2-3.9-2.3z" fill="#ec1c24"/><path d="M102.3 286.5c-1.6 0-2.6 1-3.7 2.1 1.1 1.1 2.1 2.1 3.7 2.1 1.5 0 2.6-1 3.7-2.1-1.1-1.1-2.2-2.1-3.7-2.1z" fill="#ec1c24"/><path d="M115.8 288.6c1-1.1 2-2 3.5-2.1q0-.5-.2-.9c-1.7.1-2.9 1.2-4 2.3-1.1-1.2-2.3-2.3-4.2-2.3-1.9 0-3.2 1.1-4.3 2.3-1.2-1.2-2.4-2.3-4.3-2.3s-3.1 1.1-4.3 2.3c-1.1-1.1-2.2-2.2-4-2.3q-.1.4-.2.9c1.5.1 2.6 1 3.6 2.1-1 1-2 2-3.5 2q.1.5.3.9c1.6-.1 2.8-1.2 3.8-2.3 1.2 1.2 2.4 2.4 4.3 2.4s3.1-1.2 4.3-2.4c1.1 1.2 2.4 2.4 4.3 2.4s3.1-1.2 4.2-2.4c1.1 1.1 2.2 2.2 3.9 2.3q.1-.4.2-.9c-1.4-.1-2.4-1-3.4-2zm-13.5 2.1c-1.6 0-2.6-1-3.7-2.1 1.1-1.1 2.1-2.1 3.7-2.1 1.5 0 2.6 1 3.7 2.1-1.1 1.1-2.2 2.1-3.7 2.1zm8.6 0c-1.6 0-2.6-1-3.7-2.1 1.1-1.1 2.1-2.1 3.7-2.1 1.5 0 2.6 1 3.6 2.1-1 1.1-2.1 2.1-3.6 2.1zM109.7 274.1h-2.2V272h-1.8v2.1h-2.2v1.7h2.2v4.4h1.8v-4.4h2.2z" fill="#fff"/><path d="M161.5 300.5s-1.4-.3-3-1.1c-.2-.1-2.9-1.6-4.3-1.9-2.2-.6-3.9-.3-3.9-.3s-1-1.5-2.9-2c-.6-.2-5.2-.9-5.7-1-1.7-.3-2.6-.6-2.6-.6l-1.5 3.7s.6.3 2.5.6c.6.1 5.1.8 5.9 1 2 .6 3.1 2.2 3.1 2.2s2-.2 4.3.3c1.6.4 4.6 2.1 4.8 2.2 1.8.8 3.3 1.1 3.3 1.1l14.4-21.9-.6-2.8zM119.5 253.3c-.2-.3-.5-.3-.8-.1 0 0-.4.3-1.3.3-1.2 0-2-1.1-2.5-2.8-.3-1-.4-2.7-.4-4.3h-1.2c0 1.2 0 2.4.2 3.3q-.1 0-.1-.1c-.4-.9-.8-2-1.1-3.2H111c.4 1.3.9 2.6 1.3 3.7q2 4.8 4.5 4.8c1.9 0 2.5-.7 2.7-.9.2-.2.2-.5 0-.7zM94.4 253.3c.2-.3.5-.3.8-.1 0 0 .4.3 1.3.3 1.2 0 2-1.1 2.5-2.8.3-1 .4-2.7.4-4.3h1.2c0 1.2 0 2.4-.2 3.3q.1 0 .1-.1c.4-.9.8-2 1.1-3.2h1.3c-.4 1.3-.9 2.6-1.3 3.7q-2 4.8-4.5 4.8c-1.9 0-2.6-.7-2.7-.9-.2-.2-.2-.5 0-.7z" fill="#fefefe"/><path d="M110.1 243.1h1.2c-.3-1.1-.5-2.2-.8-3.1l.2-.2c1.3-1.4 3.2-2.7 4.6-3.7-.6 1.2-1.2 2.9-1.6 5-.1.5-.2 1.2-.3 2h1.2q.1-1.1.3-1.8c.7-4.2 2.6-6.5 2.6-6.5.2-.2.1-.6 0-.8-.2-.2-.5-.2-.8-.1-.2.1-4 2.2-6.5 4.7q-.1-.6-.2-1.1c-.3-2.1-1.7-3.7-3.1-3.7-1.4 0-2.7 1.6-3 3.7q-.1.5-.3 1.1c-2.4-2.5-6.3-4.6-6.4-4.7-.3-.1-.6-.1-.8.1-.2.2-.2.5 0 .8 0 0 1.8 2.3 2.6 6.5q.1.7.2 1.8h1.2c0-.8-.1-1.5-.2-2-.4-2.1-1-3.8-1.6-5 1.4 1 3.3 2.3 4.6 3.7q.1.1.1.2c-.2.9-.4 2-.7 3.1h1.2q.3-1 .5-1.9c.7.9 1.4 2 2 3.1-1 2.1-2.2 5-2.2 8.1 0 4.7 2.7 4.8 2.8 4.8.2 0 2.9-.1 2.9-4.8 0-3.1-1.2-6-2.2-8.1.6-1.1 1.3-2.2 2-3.1q.2.9.5 1.9zm-1.5 9.3c0 3.4-1.5 3.6-1.7 3.6-.1 0-1.6-.2-1.6-3.6 0-2.4.8-4.8 1.6-6.7.9 1.9 1.7 4.3 1.7 6.7zm-1.7-9.3c-.7-1.2-1.5-2.4-2.3-3.4.2-.8.4-1.5.4-2 .3-1.8 1.3-2.7 1.9-2.7.6 0 1.6.9 1.9 2.7.1.5.3 1.2.5 2-.9 1-1.7 2.2-2.4 3.4z" fill="#fefefe"/><path d="M100.9 244.7c0 .5-.4.9-1 .9-.5 0-1-.4-1-.9 0-.6.5-1 1-1 .6 0 1 .4 1 1zM103.7 244.7c0 .5-.4.9-1 .9-.5 0-.9-.4-.9-.9 0-.6.4-1 .9-1 .6 0 1 .4 1 1zM112.2 244.7c0 .5-.5.9-1 .9s-1-.4-1-.9c0-.6.5-1 1-1s1 .4 1 1zM115 244.7c0 .5-.4.9-1 .9-.5 0-1-.4-1-.9 0-.6.5-1 1-1 .6 0 1 .4 1 1zM96.3 227l.3 1h1.1l-.9.6.3 1-.8-.6-.9.6.3-1-.8-.6h1zM106.9 223.7l.4 1h1l-.8.6.3 1-.9-.6-.8.6.3-1-.9-.6h1.1zM106.9 230.4l.4 1h1l-.8.6.3.9-.9-.6-.8.6.3-.9-.9-.6h1.1zM102.9 224l.3 1h1l-.8.6.3 1-.8-.6-.9.6.3-1-.8-.6h1zM102.9 230.1l.3 1h1l-.8.6.3 1-.8-.7-.9.7.3-1-.8-.6h1zM99.2 224.9l.4 1h1l-.8.6.3.9-.9-.6-.8.6.3-.9-.9-.6h1.1zM99.2 229.2l.4 1h1l-.8.6.3 1-.9-.6-.8.6.3-1-.9-.6h1.1zM117.6 227l-.3 1h-1.1l.9.6-.3 1 .8-.6.9.6-.4-1 .9-.6h-1.1zM111 224l-.3 1h-1.1l.9.6-.3 1 .8-.6.9.6-.3-1 .8-.6h-1zM111 230.1l-.3 1h-1.1l.9.6-.3 1 .8-.7.9.7-.3-1 .8-.6h-1zM114.7 224.9l-.4 1h-1l.8.6-.3.9.9-.6.8.6-.3-.9.9-.6H115zM114.7 229.2l-.4 1h-1l.8.6-.3 1 .9-.6.8.6-.3-1 .9-.6H115zM174.6 279.9s-2.1-.2-3.1-.5c-.4-.1-.8-.3-1.2-.5-.7-.3-1.5-.7-2.4-.8q-.5-.1-1-.1c-.7 0-1.3.1-1.6.1-.3-.3-1-1-2.1-1.4-1-.4-1.9-.5-2.8-.5-.5-.1-1-.1-1.4-.2-1.2-.3-1.8-.7-1.8-.7l-.3-.1-17.8 18.4s.9.3 2.6.6c.5.1 5.1.8 5.7 1 1.9.5 2.9 2 2.9 2s1.7-.3 3.9.3c1.4.3 4.1 1.8 4.3 1.9 1.6.8 3 1.1 3 1.1l13.8-20.5zM150.4 296c-.4-.4-1.3-1.2-2.8-1.6-.7-.2-4.6-.8-5.1-.9-.8-.1-1.4-.3-1.8-.4l13.2-13.7-.1.2s.6.3 1.7.6l.7-.7h-.2c-.8-.2-1.4-.5-1.6-.6l2.6-2.7c.3.1.9.4 1.8.6.5.1 1 .1 1.5.2.8 0 1.7.1 2.5.5 1 .3 1.5.8 1.8 1.1l-2.4 2.9c-.3-.4-1-.9-2-1.3-.6-.2-1.2-.4-1.8-.4l-.6.7c.7.1 1.4.2 2.1.5 1 .4 1.5.9 1.8 1.2zm21.4-12.5v-.1s-1.3-.2-2.3-.4l-.6.8c.8.1 1.9.3 2.4.4L161 299.4c-.3-.1-1.1-.3-2.2-.8q-.3-.2-.8-.5c-.9-.5-2.2-1.2-3.7-1.5-1.2-.3-2.3-.4-3-.4l11.2-13.8c.4-.1 1.3-.2 2.3-.1.7.2 1.4.4 2 .7l.6-.6q-.1 0-.1-.1c-.7-.3-1.5-.6-2.4-.8-.6-.1-1.2-.1-1.7 0l2.1-2.6c.3-.1.8-.2 1.5-.2q.5 0 .9.1c.8.1 1.5.5 2.2.8.4.2.9.4 1.3.5.7.2 1.8.4 2.5.5zM147.3 255.5s1.6-5 5-9.2c3.3-4.3 8.4-8.2 10.2-9.8 5.1-4.5 6.5-7.5 6.5-7.5s-.1-.5.1-1.1c.3-.8 1.5-2 1.8-1.9.3 0 .1 1.5-.5 2.5-.4.6-1 .7-1 .7s-1.2 2.3-5.6 7.3c-3.3 3.6-7.9 7.1-10.7 10.6-2.2 2.8-4.6 9.9-4.6 9.9z" fill="#fefefe"/><path d="M148.8 252.8s-2.4-1.6-3.4-4c-1.7-4.1-.7-6.4-.7-6.4s.4.9 1 1.8c.7 1.1 1.5 2.1 2.1 3.5 1.6 3.2 1 5.1 1 5.1zM149.3 253s2.5 1.2 5.2 1c4.5-.3 6.3-2 6.3-2s-1.1 0-2.1-.1c-1.3-.1-2.6-.3-4.1-.2-3.8.1-5.3 1.3-5.3 1.3zM151.3 248.9s2.1 1.4 4.6 1.5c4.1 0 6-1.6 6-1.6s-1 0-1.9-.2c-1.2-.2-2.4-.5-3.8-.6-3.4-.2-4.9.9-4.9.9zM154.1 245.5s1.7 1.3 3.8 1.5c3.5.2 5.2-1 5.2-1s-.8-.1-1.6-.3c-1-.3-1.9-.5-3.1-.7-2.9-.4-4.3.5-4.3.5zM156.6 242.5s1.5 1.2 3.4 1.4c3.1.3 4.7-.7 4.7-.7s-.7-.1-1.4-.3c-.9-.3-1.8-.6-2.8-.7-2.6-.4-3.9.3-3.9.3zM159.4 240s1.2 1.2 2.9 1.4c2.7.2 4.1-.8 4.1-.8s-.7-.1-1.3-.3c-.7-.2-1.4-.5-2.4-.7-2.2-.3-3.3.4-3.3.4zM162 237.7s1.1 1 2.6 1.1c2.4.1 3.6-.9 3.6-.9s-.6 0-1.1-.2c-.7-.2-1.4-.4-2.2-.5-2-.2-2.9.5-2.9.5zM164.4 235.5s1.1.9 2.3.8c2-.1 3-1.2 3-1.2s-.5 0-1-.1c-.6-.1-1.2-.2-1.9-.2-1.7 0-2.4.7-2.4.7zM166.6 233s.9.7 2 .6c1.7-.1 2.5-1 2.5-1s-.4 0-.8-.1c-.5-.1-1-.2-1.6-.2-1.5 0-2.1.7-2.1.7zM168 230.6s.8.8 1.7.8c1.5-.1 2.1-1 2.1-1s-.3 0-.7-.1c-.4-.1-.8-.3-1.3-.3-1.2 0-1.8.6-1.8.6zM151.1 248.9s-2.2-1.5-2.9-3.6c-1.2-3.7 0-5.8 0-5.8s.3.9.8 1.7c.6.9 1.2 1.9 1.7 3.1 1.2 2.9.4 4.6.4 4.6zM153.7 245.4s-1.9-1.3-2.4-3.2c-1-3.2.3-5 .3-5s.2.8.6 1.5c.5.8 1 1.6 1.4 2.7 1 2.6.1 4 .1 4zM156.4 242.5s-1.7-1.2-2.1-2.9c-.7-2.8.6-4.4.6-4.4s.2.7.5 1.3c.4.8.8 1.5 1.1 2.5.7 2.3-.1 3.5-.1 3.5zM159 239.8s-1.5-1.1-1.7-2.6c-.5-2.5.8-3.8.8-3.8s.1.6.4 1.2c.3.6.6 1.3.8 2.1.6 2.1-.3 3.1-.3 3.1zM161.6 237.5s-1.3-1-1.5-2.3c-.2-2.2 1-3.4 1-3.4s.1.5.3 1c.2.6.5 1.2.7 2 .4 1.8-.5 2.7-.5 2.7zM164 235.4s-1.1-1-1.2-2.1c-.1-2 1-3 1-3s.1.5.2.9c.2.6.5 1.1.6 1.8.2 1.6-.6 2.4-.6 2.4zM166.3 232.9s-1-.7-1.2-1.6c-.3-1.6.5-2.5.5-2.5s.1.4.3.7c.2.4.5.8.6 1.4.4 1.2-.2 2-.2 2z" fill="#fefefe"/><path d="M168 230.7s-.8-.5-1-1.2c-.3-1.2.3-2 .3-2l.2.6c.2.3.4.6.6 1 .3 1-.1 1.6-.1 1.6zM104.2 327.7c1.2-.9 3-1.8 3.7-2.2 3.2.7 6.5 1.7 9.9 3-.5.4-1.1.8-1.5 1.1-.9.6-1.8 1.1-2.2 1.4-5.6-.6-10.1-1.2-12.2-1.5.6-.6 1.4-1.3 2.3-1.8z" fill="#fefefe"/><path d="M165.9 336.6c.4 3 .6 4.4.8 5.4-3.1.6-17.5 3.2-33.4 3.2-16 0-30.3-2.6-33.4-3.2.2-1 .4-2.4.7-5.4.3-2.6.5-5 .6-6 3.3.5 18.3 2.6 32.1 2.6s28.8-2.1 32.1-2.6c0 1 .2 3.2.5 6z" fill="#fefefe"/><path d="M162.4 327.7c.8.5 1.7 1.2 2.2 1.8-2 .3-6.5.9-12.2 1.5-.3-.3-1.2-.8-2.1-1.4-.5-.3-1-.7-1.5-1.1 3.4-1.3 6.7-2.3 9.9-3 .6.4 2.4 1.3 3.7 2.2z" fill="#fefefe"/><path d="M179.7 214c-4.9.3-5.8.9-5.9 1.2.4.2 1.6.4 2.5.5 1.4.3 2.8.5 3.8 1v-2.8q-.2 0-.4.1z" fill="#fff"/><path d="M179 208.7c-5-.2-9.6-.2-14.7-.1-16.4.4-32.9 2.4-45.7 4.1-10.1 1.4-18.8 2.6-26.6 2.8-6.2.2-10.4-1.4-10.9-2.9-.1-1.6-.1-9 0-11.2 1.8 1.3 5.5 1.5 6.8 1.5H90c7.7-.2 16.3-1.4 26.2-2.8 12.1-1.7 28-3.6 43.1-4 5.2-.1 10.4 0 15.4.3q.5.1 1.3.1c2.6.2 8.7.7 9.2 2.8.2 4.1.1 7 .1 10.8-1.5-.8-3.8-1.2-6.3-1.4z" fill="#fefefe"/><path d="M110.8 196.8c0-1.7 2.9-1.9 4.1-1.9 1.9-.1 4.2.3 4.2 2.1l.1 1.5-3.2.4q-2.6.4-5.1.8zM101.4 198.4c.8.2 2.2.5 4.1.4 2 0 3.3-.5 4.2-.9v1.9q-4.3.6-8.2 1.1zM91.3 195.4h.5c4.9-.1 8.3.6 8.4 1.8v.3l.1 3.5c-3.7.4-7.1.6-10.3.7h-2.1c-3.2 0-6.8-.8-6.9-2.5 0-1.8 3.5-3.7 10.3-3.8zM151.7 212.6v-2.2q2.7-.2 5.5-.3v2.1c-1.3-.3-4-.7-5.5.4zM179.6 212.8c-3.2.2-4.9.5-5.8.9l-.1-3.9q2.5 0 5.2.1c3.5.2 5.7 1 6.3 1.7-.3.2-1.4.9-5.6 1.2z" fill="#fefefe"/><path d="M155 217.2c7.3-1 13.6-4 13.6-4s1.3 3.1 3.9 6.3c5.1 0 7.4-.7 7.6-1.2 0-.8-2.5-1.1-4-1.4-2-.3-3.5-.5-3.5-1.6l-.1-5.5c-2.7-.1-5.3-.1-8.2 0q-3 .1-5.9.2v3.8l-.7-.2c-1.1-.3-4.2-.9-5.4 0q-.6.4-.5 1.3c0 .4.3 1.3 3.2 2.3z" fill="#fefefe"/><path d="M88 212.7q-.1 0-.2-.1c-2.1 0-3.5-1.6-3.4-3.7.1-2.1 1.6-3.6 3.6-3.5 1.3 0 2.1.6 2.4 1l.1.1-.5.9-.2-.1c-.2-.3-.9-.8-1.8-.9-1.4 0-2.4 1-2.4 2.5-.1 1.5.9 2.6 2.3 2.6.7.1 1.4-.2 1.9-.7l.1-.1.5.9-.1.1c-.4.4-1.1.9-2.3 1zM94.1 212.8c-2 0-3.5-1.5-3.6-3.6 0-1.1.4-2 1.1-2.7.6-.6 1.5-1 2.4-1h.1c2 0 3.5 1.5 3.5 3.6 0 1.1-.3 2-1 2.7-.6.6-1.5 1-2.5 1zm0-6.2c-.6 0-1.2.2-1.7.7-.4.4-.6 1.1-.6 1.9 0 1.5 1 2.5 2.3 2.5h.1c.6 0 1.2-.2 1.6-.7.5-.5.7-1.1.7-1.9 0-1.5-1-2.5-2.4-2.5zM98.9 212.5l-.8-7 1.2-.1 4.1 4.7c-.1-.4-.1-.9-.2-1.4l-.4-3.7 1.2-.1.7 7-1.1.1-4.2-4.8c.1.4.2.9.2 1.5l.4 3.7zM105.9 211.7l-.9-7 3.8-.5.2 1-2.8.4.3 2 2.6-.3.1 1-2.5.3.4 2.9zM113.1 210.8c-1.8 0-3.2-1.3-3.5-3.2-.2-1 .1-2 .6-2.7.6-.8 1.4-1.2 2.4-1.4h.5c1.8 0 3.2 1.2 3.5 3.1.1 1.1-.1 2-.7 2.8-.5.7-1.3 1.2-2.3 1.3q-.3.1-.5.1zm0-6.3q-.2 0-.4.1c-.6.1-1.2.4-1.5.9-.4.5-.6 1.2-.4 1.9.2 1.4 1.1 2.3 2.3 2.3q.2 0 .4-.1c.6 0 1.2-.4 1.5-.9.4-.5.5-1.2.4-1.9-.2-1.4-1.1-2.3-2.3-2.3zM117.9 210l-1-7 2-.3q1-.1 1.7.3c.5.3.8.8.9 1.4.2 1.2-.5 1.9-1.2 2.2l2.4 2.7-1.4.2-2.1-2.6h-.6l.4 2.9zm.4-6.1.2 2.1.6-.1c.4-.1.8-.1 1-.4.3-.2.3-.5.3-.9-.1-.3-.2-.6-.5-.7-.3-.2-.6-.2-1.1-.1zM124.2 209.2l-.8-6-1.8.2-.2-1 4.9-.6.1 1-1.8.2.7 6zM126.2 208.9l2-7.4 1-.1 3.6 6.7-1.3.2-.9-1.7-2.7.3-.4 1.8zm2.6-5.7-.7 2.7 2-.2zM133.1 208.1l-.7-7 2-.2q1-.1 1.7.3c.5.3.8.8.8 1.5.1 1.1-.5 1.8-1.2 2l2.2 2.9-1.4.2-2-2.8-.5.1.3 2.9zm.5-6.2.2 2.1h.6c.4-.1.8-.1 1-.4.3-.2.3-.4.3-.8s-.2-.6-.5-.8q-.2-.1-.6-.1h-.4zM138.3 207.6l-.7-7.1 4.1-.3.1 1-2.9.3.1 1.8 2.8-.3.1 1-2.8.3.2 2.1 3-.2.1 1zM145.2 207l-.5-7.1 4.1-.3.1 1-3 .3.2 1.8 2.7-.2.1 1-2.8.2.2 2.1 3-.2.1 1.1zM151.9 206.6c-1.1 0-1.8-.7-2.1-1l-.1-.1.6-.9.1.1c.4.4 1 .9 1.7.9q.5-.1.8-.4.3-.3.3-.8c-.1-.6-.7-.8-1-.9h-.1c-.4-.1-.8-.3-1.1-.4q-.4-.2-.7-.5-.5-.4-.5-1.2c-.1-.5.1-1.1.5-1.4q.6-.6 1.6-.7h.1q1.1 0 1.9.8l.1.1-.6.9-.1-.1q-.7-.7-1.4-.6-.5 0-.8.2-.2.3-.2.7c0 .5.4.7.8.8l1.3.5c.2 0 .6.3.8.5q.5.5.5 1.2c.1.6-.1 1.2-.6 1.6q-.6.6-1.6.7h-.2zM156.5 206.2l-.3-6-1.9.1v-1l4.9-.3v1l-1.8.1.3 6zM162.7 206c-2 0-3.4-1.4-3.5-3.5-.1-2.1 1.3-3.7 3.4-3.8h.1c2 0 3.5 1.5 3.6 3.5 0 2.1-1.4 3.7-3.4 3.8h-.2zm0-6.2h-.1c-1.4 0-2.3 1.1-2.2 2.6 0 1.5 1 2.5 2.3 2.5h.1c1.4 0 2.3-1.1 2.3-2.6-.1-1.5-1-2.5-2.4-2.5zM171.8 206l-1-.1-2.2-7.1h1.2l1.6 5.3 2-5.2 1.2.1zM175.8 206.2l-1.1-.1.5-7h1.2zM181.9 206.7l-1.4-.1-1.4-3.1-.6-.1-.3 2.9-1.1-.1.7-7 2 .2q1.1.1 1.6.7c.4.4.6 1 .5 1.6-.1 1.1-.9 1.7-1.6 1.8zm-3.2-4.4.6.1h.4q.4 0 .6-.1c.3-.2.4-.4.5-.8 0-.4-.1-.6-.3-.8-.2-.3-.6-.3-1-.4h-.6z" fill="#0e4d91"/><path d="M71.2 304.7H73c3.8 0 4.9 1.1 4.9 1.5v.3c0 .5-.1 1.5-6.8 2.7zM70.6 310.5q.2 0 .5-.1c3.8-.7 5.8-1.3 6.9-2l-.1 4.2q-1.8.5-3.7 1c-5.1 1.4-5.8 1.4-6.7 1.4h-.2c-.4 0-2.1 0-2.7-1.1v-.2c0-.8.2-2.1 6-3.2z" fill="#fefefe"/><path d="M98.2 323.3c-6.5 0-13.3 1.2-22.8 4h-.2c-1.7.5-2.9.8-4.8 1.1h-1.3c-1.5 0-4.1-.2-4.4-2.2 0-4.6 0-5.8-.1-9.1v-1.6c1 .7 2.2.7 2.7.7h.2c1.2 0 2-.1 7-1.5l4.2-1c7.8-1.9 13.8-2.8 19.5-2.8 6.9 0 13.6 1.3 21.6 4.3-.2 1.8-1 8.6-1.5 12.3-5.3-2.2-10.3-3.5-15.3-3.9q-2.3-.3-4.8-.3zM188.6 306.2c.1-.4 1.1-1.5 5-1.5h1.8l.1 4.5c-6.8-1.2-6.8-2.2-6.9-2.7v-.3zM201.9 317.1c0 3.3 0 4.5-.1 9.1-.2 2-2.8 2.2-4.3 2.2h-1.3c-2-.3-3.1-.6-4.9-1.1h-.1c-9.5-2.8-16.4-4-22.9-4q-2.4 0-4.8.3c-4.9.4-9.9 1.7-15.2 3.9-.5-3.4-1.3-10.5-1.5-12.3 8-3 14.6-4.3 21.6-4.3 5.6 0 11.7.9 19.5 2.8q2 .5 4.1 1c5.1 1.4 5.9 1.5 7.1 1.5h.2c.5 0 1.7 0 2.7-.7z" fill="#fefefe"/><path d="M201.9 313.9c-.5 1.1-2.3 1.1-2.6 1.1h-.2c-.9 0-1.6 0-6.8-1.4q-1.8-.5-3.7-1v-4.2c1.1.7 3.1 1.3 6.8 2q.3.1.6.1c5.7 1.1 6 2.4 6 3.2q0 .1-.1.2z" fill="#fefefe"/><path d="M73.7 325.4c-1.1 0-1.9-.6-2.3-.9l-.1-.1.7-1.1.2.1c.2.2.8.7 1.6.7h.4c.6-.2 1.2-.6 1.1-1.3-.1-.6-.9-.8-1.3-.8v-.1c-.5 0-1.1-.1-1.4-.2q-.5-.1-.9-.4-.7-.5-.8-1.3c-.1-.6 0-1.2.5-1.7.4-.5 1-.8 1.7-1h.7c1 0 1.6.4 1.9.6l.1.1-.6 1.1-.2-.1q-.8-.6-1.7-.4-.5.1-.8.3-.3.3-.2.7c.1.5.5.7 1.1.8l1.5.3c.2 0 .7.2 1.1.5q.6.5.7 1.2c.2.7 0 1.4-.5 1.9q-.7.8-1.9 1-.3.1-.6.1zM77.6 324.3l1.3-8.5 1.2-.3 5.2 6.9-1.6.4-1.3-1.7-3 .7-.3 2.1zm2.4-6.6-.4 2.8 2.1-.5zM88.3 322c-2 0-3.6-1.4-3.9-3.4-.2-1.2 0-2.3.7-3.1.6-.9 1.6-1.4 2.7-1.6q.5-.1.9-.1c1 0 1.8.4 2.2.6l.1.1-.5 1.3-.2-.1c-.3-.3-.9-.6-1.7-.6q-.3 0-.5.1c-.8.1-1.4.5-1.8 1-.4.6-.6 1.3-.5 2.1.3 1.4 1.3 2.3 2.7 2.3h.5c.9-.2 1.6-.6 2-1.2l.2-.2.8.9-.1.1c-.4.7-1.2 1.4-2.7 1.7q-.5.1-.9.1zM92.9 321.2l-.4-7.8 2.4-.2q1.2 0 2 .5c.6.4.9 1 .9 1.7.1 1.2-.7 2-1.5 2.2l2.4 3.3-1.7.1-2.3-3.1h-.5l.2 3.2zm1.1-6.7.1 2.2h.6c.5-.1.9-.1 1.2-.3.3-.2.4-.5.4-.9s-.2-.6-.5-.8c-.2-.1-.4-.2-.8-.2h-.4zM104.2 321.3l-5-.3.5-7.9 4.9.4v1.2l-3.5-.2-.1 1.8 3.2.3v1.2l-3.3-.2-.2 2.2 3.6.2zM108.8 322q-.6 0-1.2-.1l-2.5-.5 1.6-7.7 2.5.5c1.7.4 2.5 1.3 2.8 1.7.5.6 1 1.6.7 3.1-.3 1.4-1.2 2.2-1.9 2.6-.6.3-1.3.4-2 .4zm-2-1.6 1.1.3h.8q.7 0 1.2-.3 1-.6 1.3-1.7.2-1.2-.5-2.2c-.2-.3-.7-.8-1.7-1l-1.1-.2zM156.8 322.3l-1.3-7.8 1.4-.2.6 3 3.7-.6-.5-3.1 1.4-.2 1.3 7.7-1.4.3-.6-3.5-3.7.7.6 3.4zM164.7 321.1l-.2-7.9 5-.1v1.3H166v1.9l3.3-.1.1 1.3-3.3.1v2.2l3.6-.1v1.3zM178.4 321.9l-1.6-.2-.6-2-3.1-.4-1 1.8-1.6-.1 4.3-7.5 1.2.2zm-4.7-3.8 2.2.2-.8-2.8zM184.9 323.2l-1.8-.4-1.3-3.6-.6-.1-.6 3.2-1.5-.3 1.6-7.7 2.4.5q1.2.2 1.8.9c.5.5.6 1.2.5 1.9-.3 1.2-1.2 1.7-2.1 1.8zm-3.4-5.3.6.1q.5.1.8.1.3.1.5 0c.3-.2.5-.4.6-.8 0-.4 0-.6-.3-.9-.2-.3-.6-.4-1.1-.5l-.6-.1zM188.4 324.2l-1.4-.4 1.7-6.4-2.1-.6.3-1.2 5.7 1.6-.3 1.2-2.1-.6zM186.4 199.2v-.1c-.6-2.7-5.6-3.4-10.3-3.8q-.8 0-1.3-.1c-5-.3-10.3-.4-15.6-.3-13.3.3-27.7 1.9-38.8 3.4l-.1-1.3c0-2.2-1.9-3.4-5.4-3.3-3.2 0-5.1 1.1-5.2 2.8-.5.3-1.8 1.1-4.2 1.1-2.2.1-3.6-.3-4.1-.5q-.2-2-4.3-2.6c-2-.3-4.2-.4-5.3-.3h-.6c-7 .1-11.5 2.1-11.4 5.1.1 2.7 0 11.9.1 13.5v.1c.7 2.4 5.5 4 12.1 3.8 7.9-.2 16.6-1.4 26.8-2.8 9-1.2 20.9-2.6 31.7-3.4v3.8h.1v1.4q.4.9 1.9 1.7 1.2-.1 2.5-.2c-2.9-1-3.2-1.9-3.2-2.3q-.1-.9.5-1.3c1.2-.9 4.3-.3 5.4 0l.7.2V210q2.9-.1 5.9-.2c2.9-.1 5.5-.1 8.2 0l.1 5.5c0 1.1 1.5 1.3 3.5 1.6 1.5.3 4 .6 4 1.4-.2.5-2.5 1.2-7.6 1.2l1 1.2h.2c3.6-.1 6.2-.5 7.1-1.4.4-.3.5-.6.5-.9v-4.6c2.8-.3 4.4-.8 4.9-1.6.2-.3.2-.4.2-.6v-1.8c0-3.9.1-6.5 0-10.6zm-71.5-4.3c1.9-.1 4.2.3 4.2 2.1l.1 1.5-3.2.4q-2.6.4-5.1.8l-.1-2.9c0-1.7 2.9-1.9 4.1-1.9zm70.3 15.2c-1.4-.8-3.7-1.2-6.2-1.4-5-.2-9.6-.2-14.7-.1-16.4.4-32.9 2.4-45.7 4.1-10.1 1.4-18.8 2.6-26.6 2.8-6.2.2-10.4-1.4-10.9-2.9-.1-1.6-.1-9 0-11.2 1.8 1.3 5.5 1.5 6.8 1.5H90c7.7-.2 16.3-1.4 26.2-2.8 12.1-1.7 28-3.6 43.1-4 5.2-.1 10.4 0 15.4.3q.5.1 1.3.1c2.6.2 8.7.7 9.2 2.8.2 4.1.1 7 0 10.8zm-93.9-14.7h.5c4.9-.1 8.3.6 8.4 1.8v.3l.1 3.5c-3.7.4-7.1.6-10.3.7h-2.1c-3.2 0-6.8-.8-6.9-2.5 0-1.8 3.5-3.7 10.3-3.8zm60.4 17.2v-2.2q2.7-.2 5.5-.3v2.1c-1.3-.3-4-.7-5.5.4zm28.4 4.1c-1-.5-2.4-.7-3.8-1-.9-.1-2.1-.3-2.5-.5.1-.3 1-.9 5.9-1.2q.2-.1.4-.1zm-.5-3.9c-3.2.2-4.9.5-5.8 1l-.1-4q2.5 0 5.2.2c3.5.1 5.7 1 6.3 1.6-.3.3-1.4.9-5.6 1.2zm-74.1-14c2 0 3.3-.5 4.2-.9v1.9q-4.3.6-8.2 1.1l-.1-2.5c.8.2 2.2.5 4.1.4zM116.1 342h-.6c-2.2-.2-3.6-2-3.3-4.2.2-2 1.7-3.4 3.7-3.4h.5c1.4.2 2.2.9 2.5 1.3l.1.1-.8 1.1-.1-.2c-.2-.4-.9-.9-1.8-1-1.5-.2-2.6.7-2.7 2.2-.1.8 0 1.4.4 2 .4.5 1 .8 1.7.9h.4c.8 0 1.3-.3 1.7-.6l.1-.2.5 1.1-.1.1c-.4.4-1.1.8-2.2.8zM122.8 342.6h-.3c-1 0-1.9-.5-2.6-1.2-.7-.7-1-1.7-.9-2.8.1-2.1 1.6-3.6 3.7-3.6h.3c2.2.2 3.7 1.9 3.6 4.1-.2 2.1-1.7 3.5-3.8 3.5zm0-6.4c-1.4 0-2.4 1-2.5 2.4 0 .8.2 1.5.6 2 .4.4 1 .7 1.7.8 1.4.1 2.5-.9 2.6-2.4.1-1.6-.8-2.7-2.3-2.8h-.1zM131.3 342.9l-3.8-.1.2-7.4h1.3l-.1 6.2h2.5zM132.1 342.9l-.1-7.4 1.4-.1v6.2h2.5v1.2zM136.6 342.8l-.2-7.4 4.5-.1v1.2l-3.1.1v1.7l3-.1v1.2l-2.9.1v2.1l3.3-.1v1.2zM145.5 342.5c-2.1 0-3.6-1.4-3.8-3.5-.1-2.2 1.3-3.9 3.5-4.1 1.8-.1 2.7.7 3 1l.2.2-.9.9-.1-.1q-.8-.8-1.9-.8h-.2c-1.4.1-2.3 1.2-2.2 2.8.1 1.5 1.2 2.5 2.6 2.4 1.2-.1 1.7-.6 1.8-.7l-.1-1.3-1.9.1-.1-1.1 3.2-.3.3 3-.1.1c-.7.8-1.7 1.3-3 1.4h-.3zM150.2 342l-.9-7.4 4.5-.5.1 1.1-3.1.4.2 1.8 2.9-.4.2 1.2-2.9.3.2 2.1 3.2-.4.2 1.2z" fill="#0e4d91"/><path d="m196.7 309.4-.1-5.8h-.5q-1.4-.1-2.5-.1c-5.8 0-6.2 2.3-6.2 2.6v6.2c-7.5-1.8-13.4-2.6-19-2.6-7.2 0-14.2 1.4-22.5 4.5l-.4.2v.4c0 .1 1.8 14.1 1.8 14.1s1.3 1.1 2.3 1.7q.4.3.8.5c-5.2.5-11.3.9-17.1.9-5.9 0-11.9-.4-17.2-.9q.4-.2.9-.5c.9-.6 2.3-1.7 2.3-1.7s1.7-14 1.7-14.1l.1-.4-.5-.2c-8.3-3.1-15.2-4.5-22.4-4.5-5.6 0-11.5.8-19.1 2.6l.1-5.9h-.1v-.3c0-.3-.3-2.6-6.1-2.6q-1.1 0-2.5.1H70l-.1 5.8c-5.4 1.2-6.5 2.5-6.5 4.5v3.2c.1 3.3.1 4.6.1 9.2.3 2.1 2.3 3.4 5.6 3.4q.7 0 1.4-.1c2.1-.3 3.3-.6 5.1-1.1h.1c9.4-2.8 16.1-4 22.5-4q.8 0 1.6.1h1.6c.9.1 1.6.2 1.6.2q1.5.1 3 .4c-.8.4-1.7 1-2.5 1.5-1.7 1.1-3.4 2.4-3.4 2.5l-.1.7s-.1 2.9-.6 6.5c-.6 4.2-.9 5.9-.9 5.9l-.1.6.6.2c.2 0 16.3 3.3 34.3 3.3 18 0 34.1-3.3 34.3-3.3l.6-.2-.2-.6s-.4-1.7-.9-5.9c-.4-3.6-.6-6.5-.6-6.5v-.7c-.1-.1-1.8-1.4-3.4-2.5-.8-.5-1.8-1.1-2.5-1.5q1.4-.3 2.9-.4s.7-.1 1.6-.1c.9-.1 1.6-.1 1.6-.1q.8-.1 1.6-.1c6.4 0 13.2 1.2 22.6 4h.1c1.7.5 3 .8 5 1.1q.8.1 1.5.1c3.3 0 5.3-1.3 5.5-3.4.1-4.6.1-5.9.1-9.2l.1-3.1v-.1c0-2-1.1-3.3-6.5-4.5zm-8.1-3.2c.1-.4 1.1-1.5 5-1.5h1.8l.1 4.5c-6.8-1.2-6.8-2.2-6.9-2.7v-.3zm-117.4-1.5H73c3.8 0 4.9 1.1 4.9 1.5v.3c0 .5-.1 1.5-6.8 2.7zm-.6 5.8q.3 0 .6-.1c3.7-.7 5.7-1.3 6.8-2v4.2q-1.9.4-3.7.9c-5.2 1.4-5.9 1.4-6.8 1.5h-.2c-.3 0-2.1-.1-2.6-1.1l-.1-.1v-.1c0-.8.3-2.1 6-3.2zm32.5 13q-2.4-.2-4.8-.2c-6.5 0-13.4 1.2-22.9 4h-.1c-1.8.5-2.9.8-4.9 1q-.6.1-1.3.1c-1.5 0-4.1-.3-4.3-2.2-.1-4.6-.1-5.8-.1-9.1l-.1-1.6c1 .6 2.2.7 2.7.7h.2c1.2-.1 2-.1 7.1-1.5q2.1-.6 4.1-1.1c7.8-1.9 13.9-2.7 19.5-2.7 7 0 13.6 1.3 21.6 4.2-.2 1.9-1 8.8-1.5 12.3-5.3-2.1-10.3-3.4-15.2-3.9zm1.1 4.1c1.3-.8 3.1-1.8 3.7-2.1 3.2.7 6.5 1.7 9.9 3-.5.4-1 .8-1.5 1.1-.9.6-1.8 1.1-2.1 1.3-5.7-.5-10.2-1.2-12.3-1.5.6-.5 1.5-1.2 2.3-1.8zm61.8 8.9c.3 3.1.5 4.5.7 5.5-3.1.6-17.4 3.2-33.4 3.2-15.9 0-30.3-2.6-33.4-3.2.2-1 .4-2.4.8-5.5.3-2.5.5-5 .5-6 3.3.5 18.3 2.7 32.1 2.7s28.8-2.2 32.1-2.7c.1 1 .2 3.3.6 6zm-3.6-8.9c.9.6 1.7 1.3 2.3 1.8-2.1.3-6.6 1-12.3 1.5-.3-.2-1.2-.7-2.1-1.3-.4-.3-1-.7-1.5-1.1 3.4-1.3 6.7-2.3 9.9-3 .7.3 2.5 1.3 3.7 2.1zm39.6-10.5c-.1 3.3-.1 4.5-.2 9.1-.2 1.9-2.8 2.2-4.3 2.2q-.6 0-1.3-.1c-2-.2-3.1-.5-4.9-1h-.1c-9.5-2.8-16.3-4-22.8-4q-2.5 0-4.8.2c-5 .5-10 1.8-15.3 3.9-.5-3.5-1.3-10.4-1.5-12.3 8-2.9 14.7-4.2 21.6-4.2 5.7 0 11.7.8 19.5 2.7q2.1.5 4.2 1.1c5 1.4 5.8 1.4 7 1.5h.2c.5 0 1.7-.1 2.7-.7zm0-3.2c-.6 1.1-2.3 1.1-2.7 1.1h-.1c-1 0-1.7 0-6.8-1.4q-1.9-.5-3.7-1v-4.1c1 .6 3 1.3 6.8 2q.3 0 .5.1c5.8 1.1 6 2.3 6 3.2v.1z" fill="#0e4d91"/></svg>