<svg xmlns="http://www.w3.org/2000/svg" version="1.2" viewBox="66.2 160.49 465.6 508.71"><path fill="#ec1c24" d="m416.5 225.6c0 0-29.9 14.2-59.7 14.2-29.8 0-57.8-14.2-57.8-14.2 0 0-28 14.2-57.8 14.2-29.8 0-59.7-14.2-59.7-14.2 0 0-7.8 18.1-23.3 31.7-15.5 13.5-33.4 21.9-33.4 21.9 0 0 24.5 31.1 24.5 75.7 0 44.6-24.5 63.3-24.5 113.7 0 58.9 55 90.9 114.6 103.5 48.9 10.3 59.6 24.5 59.6 24.5 0 0 10.7-14.2 59.6-24.5 59.6-12.6 114.5-44.6 114.5-103.5 0-50.4-24.4-69.1-24.4-113.7 0-44.6 24.4-75.7 24.4-75.7 0 0-17.9-8.4-33.4-21.9-15.5-13.6-23.2-31.7-23.2-31.7zm-117.5 13.2c10.2 4.4 33.2 13 57.8 13 21.2 0 42.1-6.4 54.2-11 4.3 7.3 11.3 17.1 20.8 25.5 8.4 7.3 17.3 13.2 24.2 17.3-8 14-19.3 39.4-19.3 71.3 0 23.7 6.3 40.8 12.4 57.3 6.2 16.8 12 32.6 12 56.4 0 23.5-10.2 43.6-30.4 59.7-18.1 14.5-43.9 25.5-74.6 32-30.7 6.5-47.9 14.7-57.1 20.8-9.3-6.1-26.4-14.3-57.1-20.8-30.8-6.5-56.6-17.5-74.6-32-20.2-16.1-30.5-36.2-30.5-59.7 0-23.8 5.9-39.6 12.1-56.4 6.1-16.5 12.4-33.6 12.4-57.3 0-31.9-11.4-57.3-19.4-71.3 7-4.1 15.9-10 24.2-17.3 9.6-8.4 16.5-18.2 20.9-25.5 12.1 4.6 33 11 54.2 11 24.6 0 47.6-8.6 57.8-13z"/><path fill="#0e4d91" d="m446.3 404.7c-5.1-14.3-9.6-29.7-9.6-49.8 0-31.9 11.3-57.3 19.3-71.3-6.9-4.1-15.8-10-24.2-17.3-9.5-8.4-16.5-18.2-20.8-25.5-12.1 4.6-33 11-54.2 11-24.6 0-47.6-8.6-57.8-13v165.9z"/><path fill="#74bce7" d="m446.3 404.7h-147.3v176.4q0 0 0 0c9.2-6.1 26.4-14.3 57.1-20.8 30.7-6.5 56.5-17.5 74.6-32 20.2-16.1 30.4-36.2 30.4-59.7 0-23.8-5.8-39.6-12-56.4q-1.4-3.7-2.8-7.5z"/><path fill="#0e4d91" d="m151.6 404.7q-1.3 3.8-2.7 7.5c-6.2 16.8-12.1 32.6-12.1 56.4 0 23.5 10.3 43.6 30.5 59.7 18 14.5 43.8 25.5 74.6 32 30.7 6.5 47.8 14.7 57.1 20.8v-176.4z"/><path fill="#74bce7" d="m299 238.8c-10.2 4.4-33.2 13-57.8 13-21.2 0-42.1-6.4-54.2-11-4.4 7.3-11.3 17.1-20.9 25.5-8.3 7.3-17.2 13.2-24.2 17.3 8 14 19.4 39.4 19.4 71.3 0 20.1-4.6 35.5-9.7 49.8h147.4z"/><path fill="#fefefe" d="m299 347.3c27.4 0 49.7 25.7 49.7 57.4 0 31.6-22.3 57.3-49.7 57.3-27.4 0-49.7-25.7-49.7-57.3 0-31.7 22.3-57.4 49.7-57.4z"/><path fill="#0e4d91" d="m299 342.8c-29.9 0-54.2 27.7-54.2 61.9 0 34.1 24.3 61.8 54.2 61.8 29.9 0 54.1-27.7 54.1-61.8 0-34.2-24.2-61.9-54.1-61.9zm0 4.5c27.4 0 49.7 25.7 49.7 57.4 0 31.6-22.3 57.3-49.7 57.3-27.4 0-49.7-25.7-49.7-57.3 0-31.7 22.3-57.4 49.7-57.4z"/><path fill="#0e4d91" d="m312.6 446.1h-27.3v-26h2c2.1 0 3.8-1.7 3.8-3.8 0-2.1-1.7-3.8-3.8-3.8-2.1 0-3.8 1.7-3.8 3.8v2h-23v-27.3h23v2c0 2.1 1.7 3.8 3.8 3.8 2.1 0 3.8-1.7 3.8-3.8 0-2.1-1.7-3.8-3.8-3.8h-2v-26h27.3v26h-2c-2 0-3.7 1.7-3.7 3.8 0 2.1 1.7 3.8 3.7 3.8 2.1 0 3.8-1.7 3.8-3.8v-2h23.1v27.3h-23.1v-2c0-2.1-1.7-3.8-3.8-3.8-2 0-3.7 1.7-3.7 3.8 0 2.1 1.7 3.8 3.7 3.8h2zm-23.3-4h19.3v-18.3c-3.3-0.9-5.7-3.9-5.7-7.5 0-4.3 3.5-7.8 7.7-7.8 3.7 0 6.7 2.5 7.6 5.8h15.3v-19.3h-15.3c-0.9 3.3-3.9 5.8-7.6 5.8-4.2 0-7.7-3.5-7.7-7.8 0-3.6 2.4-6.7 5.7-7.6v-18.2h-19.3v18.2c3.3 0.9 5.8 4 5.8 7.6 0 4.3-3.5 7.8-7.8 7.8-3.6 0-6.6-2.5-7.5-5.8h-15.3v19.3h15.3c0.9-3.3 3.9-5.8 7.5-5.8 4.3 0 7.8 3.5 7.8 7.8 0 3.6-2.5 6.6-5.8 7.5z"/><path fill="#ec1c24" d="m181.6 474.4c3.7-4 7.8-7.7 14.1-7.7 6.4 0 10.5 3.7 14.4 7.7 3.8-4 8-7.7 14.3-7.7 6.3 0 10.4 3.7 14.1 7.7 3.6-3.8 7.5-7.3 13.4-7.7-3.1-12.2-12.5-18-24.2-18-6.3 0-14.2 5.5-17.6 8.4-3.4-2.9-11.4-8.4-17.6-8.4-11.5 0-21 5.8-24.3 18 5.9 0.4 9.8 3.9 13.4 7.7z"/><path fill="#ec1c24" d="m240.6 476.6c3.3 3.5 6.7 6.5 11.6 6.9q0.8-3.5 0.8-7.1 0-3.6-0.5-6.7c-5.1 0.2-8.5 3.3-11.9 6.9z"/><path fill="#ec1c24" d="m179.5 476.6c-3.4-3.6-6.9-6.7-11.9-6.9q-0.5 3.1-0.5 6.7 0 3.6 0.8 7.1c4.9-0.3 8.2-3.4 11.6-6.9z"/><path fill="#ec1c24" d="m224.4 469.7c-5.1 0-8.7 3.2-12.2 6.9 3.5 3.7 7.1 6.9 12.2 6.9 5.1 0 8.6-3.3 12.1-6.9-3.5-3.7-7-6.9-12.1-6.9z"/><path fill="#ec1c24" d="m238.5 478.8c-3.7 3.9-7.8 7.7-14.1 7.7-6.3 0-10.5-3.8-14.3-7.8-3.9 4-8 7.8-14.4 7.8-6.3 0-10.4-3.8-14.1-7.8-3.6 3.7-7.3 7.1-12.9 7.7 7.8 24.5 41.3 41.6 41.3 41.6h0.1c0 0 33.6-17.1 41.3-41.6-5.6-0.6-9.4-4-12.9-7.6z"/><path fill="#ec1c24" d="m195.7 469.7c-5.1 0-8.6 3.2-12.1 6.9 3.5 3.6 7 6.9 12.1 6.9 5.2 0 8.7-3.2 12.3-6.9-3.6-3.7-7.1-6.9-12.3-6.9z"/><path fill="#fff" d="m240.6 476.6c3.4-3.6 6.8-6.7 11.9-6.9q-0.2-1.6-0.6-3c-5.9 0.4-9.8 3.9-13.4 7.7-3.7-4-7.8-7.7-14.1-7.7-6.3 0-10.5 3.7-14.3 7.7-3.9-4-8-7.7-14.4-7.7-6.3 0-10.4 3.7-14.1 7.7-3.6-3.8-7.5-7.3-13.4-7.7q-0.3 1.4-0.6 3c5 0.2 8.5 3.3 11.9 6.9-3.4 3.5-6.7 6.6-11.6 6.9q0.3 1.4 0.8 2.9c5.6-0.6 9.3-4 12.9-7.7 3.7 4 7.8 7.8 14.1 7.8 6.4 0 10.5-3.8 14.4-7.8 3.8 4 8 7.8 14.3 7.8 6.3 0 10.4-3.8 14.1-7.7 3.5 3.6 7.3 7 12.9 7.6q0.5-1.5 0.8-2.9c-4.9-0.4-8.3-3.4-11.6-6.9zm-44.9 6.9c-5.1 0-8.6-3.3-12.1-6.9 3.5-3.7 7-6.9 12.1-6.9 5.2 0 8.7 3.2 12.3 6.9-3.6 3.7-7.1 6.9-12.3 6.9zm28.7 0c-5.1 0-8.7-3.2-12.2-6.9 3.5-3.7 7.1-6.9 12.2-6.9 5.1 0 8.6 3.2 12.1 6.9-3.5 3.6-7 6.9-12.1 6.9z"/><path fill="#fff" d="m220.4 428.3h-7.4v-7h-5.8v7h-7.4v5.8h7.4v14.6h5.8v-14.6h7.4z"/><path fill="#fefefe" d="m392.9 516.1c0 0-4.5-0.9-9.8-3.4-0.8-0.4-9.8-5.3-14.5-6.5-7.1-1.8-13.1-1-13.1-1 0 0-3.2-4.9-9.4-6.6-2.3-0.7-17.3-2.9-19.1-3.2-5.6-1.1-8.7-2.1-8.7-2.1l-4.8 12.4c0 0 2 0.9 8.2 2 2 0.4 17 2.6 19.5 3.3 6.8 2 10.4 7.3 10.4 7.3 0 0 6.6-0.8 14.4 1.1 5.2 1.3 15.1 6.8 16 7.2 5.9 2.8 10.9 3.8 10.9 3.8l48.1-73-2.3-9.3z"/><path fill="#fefefe" d="m253.1 359c-0.6-0.8-1.7-1-2.6-0.3-0.1 0.1-1.5 1.1-4.5 1.1-3.9 0-6.5-3.7-8.3-9.5-1-3.3-1.4-8.7-1.3-14.3h-4c-0.1 4 0.1 8 0.6 11.2q-0.1-0.1-0.2-0.3c-1.3-3.2-2.6-6.9-3.8-10.9h-4.2c1.4 4.5 2.9 8.8 4.3 12.3 4.4 10.6 9.4 16 15.1 16 6.3 0 8.3-2.3 8.8-2.8 0.7-0.7 0.8-1.7 0.1-2.5z"/><path fill="#fefefe" d="m169.4 359c0.6-0.8 1.7-1 2.6-0.3 0.2 0.1 1.6 1.1 4.5 1.1 4 0 6.6-3.7 8.4-9.5 1-3.3 1.3-8.7 1.3-14.3h4c0 4-0.2 8-0.6 11.2q0.1-0.1 0.1-0.3c1.3-3.2 2.6-6.9 3.9-10.9h4.1c-1.3 4.5-2.8 8.8-4.2 12.3-4.4 10.6-9.4 16-15.1 16-6.4 0-8.4-2.3-8.9-2.8-0.7-0.7-0.7-1.7-0.1-2.5z"/><path fill="#fefefe" d="m221.7 325.1h4.1c-0.9-3.6-1.8-7.1-2.5-10.3q0.2-0.3 0.5-0.6c4.2-4.7 10.5-9.2 15.3-12.3-1.9 3.9-4 9.5-5.3 16.5-0.4 1.8-0.7 4.2-0.9 6.7h4c0.2-2.3 0.5-4.4 0.8-6.1 2.5-13.7 8.6-21.5 8.7-21.6 0.6-0.7 0.5-1.7-0.1-2.4-0.6-0.7-1.7-0.9-2.5-0.5-0.6 0.4-13.3 7.3-21.6 15.6-0.2-1.3-0.5-2.5-0.6-3.4-1.2-7.1-5.7-12.4-10.3-12.4-4.7 0-9.1 5.3-10.3 12.4-0.2 0.9-0.4 2.1-0.7 3.4-8.2-8.3-21-15.2-21.6-15.6-0.8-0.4-1.8-0.2-2.4 0.5-0.7 0.6-0.7 1.7-0.1 2.4 0 0.1 6.1 7.9 8.6 21.6 0.3 1.7 0.6 3.8 0.8 6.1h4c-0.2-2.5-0.5-4.9-0.8-6.7-1.3-7-3.4-12.6-5.4-16.5 4.8 3.1 11.1 7.6 15.4 12.3q0.2 0.3 0.5 0.6c-0.8 3.2-1.6 6.7-2.6 10.3h4.1c0.6-2.2 1.1-4.3 1.6-6.3 2.4 3.2 4.7 6.8 6.6 10.5-3.3 6.8-7.2 16.6-7.2 26.6 0 15.9 9.1 16 9.5 16 0.4 0 9.4-0.1 9.4-16 0-10-3.8-19.8-7.2-26.6 2-3.7 4.2-7.3 6.6-10.5 0.5 2 1.1 4.1 1.6 6.3zm-5 30.8c0 11.4-4.9 12.1-5.4 12.2-0.6-0.1-5.5-0.8-5.5-12.2 0-7.9 2.7-15.9 5.5-22.1 2.8 6.2 5.4 14.2 5.4 22.1zm-5.4-30.8c-2.3-4.1-5-8-7.7-11.3 0.6-2.6 1.1-4.9 1.3-6.5 1.1-6 4.4-9.1 6.4-9.1 2 0 5.3 3.1 6.3 9.1 0.3 1.6 0.8 3.9 1.4 6.5-2.7 3.3-5.4 7.2-7.7 11.3z"/><path fill="#fefefe" d="m191.2 330.4c0 1.7-1.4 3.2-3.3 3.2-1.8 0-3.2-1.5-3.2-3.2 0-1.8 1.4-3.2 3.2-3.2 1.9 0 3.3 1.4 3.3 3.2z"/><path fill="#fefefe" d="m200.6 330.4c0 1.7-1.5 3.2-3.3 3.2-1.8 0-3.3-1.5-3.3-3.2 0-1.8 1.5-3.2 3.3-3.2 1.8 0 3.3 1.4 3.3 3.2z"/><path fill="#fefefe" d="m228.8 330.4c0 1.7-1.5 3.2-3.3 3.2-1.9 0-3.3-1.5-3.3-3.2 0-1.8 1.4-3.2 3.3-3.2 1.8 0 3.3 1.4 3.3 3.2z"/><path fill="#fefefe" d="m238.1 330.4c0 1.7-1.5 3.2-3.3 3.2-1.8 0-3.3-1.5-3.3-3.2 0-1.8 1.5-3.2 3.3-3.2 1.8 0 3.3 1.4 3.3 3.2z"/><path fill="#fefefe" d="m175.7 271.7l1.1 3.2h3.6l-2.9 2 1.1 3.3-2.9-2-2.8 2 1.1-3.3-2.9-2h3.5z"/><path fill="#fefefe" d="m211.3 260.6l1.1 3.3h3.5l-2.8 2 1.1 3.2-2.9-2-2.9 2 1.1-3.2-2.9-2h3.6z"/><path fill="#fefefe" d="m211.3 282.8l1.1 3.2h3.5l-2.8 2.1 1.1 3.2-2.9-2-2.9 2 1.1-3.2-2.9-2.1h3.6z"/><path fill="#fefefe" d="m197.7 261.6l1.1 3.2h3.5l-2.9 2 1.1 3.3-2.8-2-2.9 2 1.1-3.3-2.9-2h3.6z"/><path fill="#fefefe" d="m197.7 281.8l1.1 3.3h3.5l-2.9 2 1.1 3.3-2.8-2.1-2.9 2.1 1.1-3.3-2.9-2h3.6z"/><path fill="#fefefe" d="m185.6 264.5l1.1 3.2h3.5l-2.8 2 1.1 3.3-2.9-2-2.9 2 1.1-3.3-2.9-2h3.6z"/><path fill="#fefefe" d="m185.6 278.9l1.1 3.3h3.5l-2.8 2 1.1 3.3-2.9-2.1-2.9 2.1 1.1-3.3-2.9-2h3.6z"/><path fill="#fefefe" d="m246.8 271.7l-1.1 3.2h-3.5l2.8 2-1.1 3.3 2.9-2 2.9 2-1.1-3.3 2.9-2h-3.6z"/><path fill="#fefefe" d="m224.9 261.6l-1.1 3.2h-3.5l2.8 2-1.1 3.3 2.9-2 2.9 2-1.1-3.3 2.8-2h-3.5z"/><path fill="#fefefe" d="m224.9 281.8l-1.1 3.3h-3.5l2.8 2-1.1 3.3 2.9-2.1 2.9 2.1-1.1-3.3 2.8-2h-3.5z"/><path fill="#fefefe" d="m237 264.5l-1.1 3.2h-3.6l2.9 2-1.1 3.3 2.9-2 2.9 2-1.1-3.3 2.8-2h-3.5z"/><path fill="#fefefe" d="m237 278.9l-1.1 3.3h-3.6l2.9 2-1.1 3.3 2.9-2.1 2.9 2.1-1.1-3.3 2.8-2h-3.5z"/><path fill="#fefefe" d="m436.5 447.8c-0.1 0-7-0.9-10.2-1.8-1.2-0.4-2.6-1-4.1-1.7-2.3-1-5-2.2-7.9-2.7q-1.6-0.3-3.4-0.3c-2.2 0-4.2 0.3-5.2 0.5-1-1.1-3.3-3.3-7.2-4.8-3.3-1.3-6.4-1.5-9.1-1.8-1.7-0.1-3.3-0.3-4.8-0.6-3.9-0.9-6.1-2.2-6.1-2.2l-1-0.5-59.2 61.4c0 0 3.1 1 8.7 2.1 1.8 0.3 16.8 2.5 19.1 3.2 6.2 1.7 9.4 6.6 9.4 6.6 0 0 6-0.8 13.1 1 4.7 1.2 13.7 6.1 14.5 6.5 5.3 2.5 9.8 3.4 9.8 3.4l45.8-68zm-80.3 53.7c-1.5-1.7-4.5-4.2-9.3-5.6-2.4-0.7-15.3-2.5-17.1-2.8-2.7-0.5-4.5-1.2-6-1.5l43.8-45.4-0.2 0.4c0.1 0.1 2.2 1.2 5.8 2.2l2.1-2.4q-0.2 0-0.4-0.1c-2.8-0.6-4.7-1.4-5.6-1.8l8.8-9.2c1.1 0.5 3.1 1.3 5.9 2 1.7 0.4 3.4 0.5 5.2 0.7 2.7 0.2 5.4 0.5 8.4 1.6 3 1.2 4.9 2.8 5.7 3.8l-7.8 9.7c-1.2-1.2-3.3-3-6.7-4.3-2.1-0.9-4.1-1.3-5.9-1.5l-2.1 2.6c2.2 0.2 4.6 0.5 7 1.5 3.2 1.2 5.1 2.9 5.9 3.9zm71.2-41.6l0.1-0.4c-0.1 0-4.2-0.5-7.7-1.1l-2 2.5c2.7 0.5 6.3 1 8.1 1.3l-34.2 50.8c-1.3-0.4-4-1.2-7.4-2.8q-1.1-0.6-2.7-1.5c-3.1-1.7-7.3-4-12.4-5.2-4.1-1.1-7.6-1.3-10-1.3l37.2-45.9c1.3-0.2 4.5-0.8 7.7-0.2 2.4 0.4 4.6 1.4 6.8 2.3l1.8-2.2q-0.1-0.1-0.2-0.1c-2.4-1.1-5-2.3-7.9-2.8-2-0.3-4-0.3-5.6-0.2l6.9-8.5c0.8-0.2 2.7-0.5 5-0.5q1.6 0 3 0.2c2.5 0.5 4.9 1.5 7.2 2.5 1.5 0.8 3 1.4 4.4 1.8 2.3 0.7 6 1.3 8.4 1.6z"/><path fill="#fefefe" d="m345.7 366.4c0 0 5.4-16.7 16.5-30.7 11.1-14.1 28-27.1 34-32.5 17-14.9 21.8-24.9 21.8-24.9 0 0-0.6-1.7 0.2-3.9 0.9-2.5 5-6.6 6.2-6.3 0.8 0.3 0.1 5.2-1.9 8.4-1.1 1.9-3.4 2.3-3.4 2.3 0 0-3.8 7.9-18.5 24.3-10.9 12.1-26.5 23.6-35.5 35.2-7.5 9.7-15.3 33.3-15.3 33.3z"/><path fill="#fefefe" d="m350.6 357.6c0 0-8-5.4-11.4-13.5-5.6-13.5-2.2-21.4-2.2-21.4 0 0 1.5 3.2 3.4 6 2.4 3.6 4.8 7.1 7 11.6 5.3 11 3.2 17.3 3.2 17.3z"/><path fill="#fefefe" d="m352.3 358.1c0 0 8.2 4 17.2 3.4 15-1 21.2-6.8 21.2-6.8 0 0-3.6 0.2-7.1-0.2-4.3-0.4-8.6-0.9-13.7-0.8-12.5 0.3-17.6 4.4-17.6 4.4z"/><path fill="#fefefe" d="m358.9 344.6c0 0 7.1 4.6 15.3 4.7 13.8 0.2 20.1-5 20.1-5 0 0-3.3-0.2-6.5-0.8-3.9-0.8-7.7-1.6-12.4-1.9-11.4-0.7-16.5 3-16.5 3z"/><path fill="#fefefe" d="m368.2 333.1c0 0 5.7 4.4 12.8 4.9 11.7 0.9 17.4-3.2 17.4-3.2 0 0-2.8-0.3-5.4-1-3.3-0.9-6.5-1.8-10.5-2.3-9.7-1.2-14.3 1.6-14.3 1.6z"/><path fill="#fefefe" d="m376.6 323.2c0 0 5 4 11.3 4.6 10.5 1.1 15.7-2.5 15.7-2.5 0 0-2.5-0.3-4.8-1-2.9-0.8-5.8-1.7-9.3-2.2-8.7-1.3-12.9 1.1-12.9 1.1z"/><path fill="#fefefe" d="m385.9 314.8c0 0 4.2 4 9.6 4.5 9 1 13.7-2.5 13.7-2.5 0 0-2.2-0.3-4.2-1-2.5-0.8-4.9-1.7-7.9-2.2-7.5-1.2-11.2 1.2-11.2 1.2z"/><path fill="#fefefe" d="m394.5 307c0 0 3.8 3.4 8.6 3.7 8.1 0.5 12.1-2.8 12.1-2.8 0 0-1.9-0.2-3.7-0.7-2.3-0.6-4.4-1.3-7.2-1.6-6.6-0.9-9.8 1.4-9.8 1.4z"/><path fill="#fefefe" d="m402.5 300c0 0 3.6 2.8 7.7 2.6 6.9-0.3 9.9-4 9.9-4 0 0-1.6 0-3.2-0.3-2-0.4-3.9-0.8-6.2-0.8-5.7-0.1-8.2 2.5-8.2 2.5z"/><path fill="#fefefe" d="m409.9 291.4c0 0 3.1 2.5 6.6 2.3 5.9-0.4 8.5-3.6 8.5-3.6 0 0-1.4 0.1-2.8-0.2-1.6-0.3-3.3-0.7-5.3-0.7-4.9-0.1-7 2.2-7 2.2z"/><path fill="#fefefe" d="m414.6 283.6c0 0 2.6 2.5 5.5 2.4 5-0.1 7.2-3.2 7.2-3.2 0 0-1.1 0-2.3-0.3-1.4-0.4-2.7-0.8-4.4-0.9-4.1-0.2-6 2-6 2z"/><path fill="#fefefe" d="m358.3 344.3c0 0-7.2-4.8-9.6-12-4.2-12-0.2-19-0.2-19 0 0 1.1 2.9 2.7 5.4 2 3.2 4 6.3 5.7 10.4 4 9.7 1.4 15.2 1.4 15.2z"/><path fill="#fefefe" d="m367.1 332.9c0 0-6.4-4.3-8.3-10.7-3-10.6 1.1-16.7 1.1-16.7 0 0 0.8 2.6 2.2 4.8 1.6 2.9 3.3 5.6 4.6 9.2 3.1 8.6 0.4 13.4 0.4 13.4z"/><path fill="#fefefe" d="m375.9 323.2c0 0-5.6-4-7-9.6-2.2-9.4 2-14.7 2-14.7 0 0 0.7 2.3 1.7 4.3 1.4 2.5 2.8 5 3.8 8.1 2.4 7.7-0.5 11.9-0.5 11.9z"/><path fill="#fefefe" d="m384.6 314.3c0 0-4.9-3.7-5.7-8.7-1.5-8.3 2.7-12.7 2.7-12.7 0 0 0.4 2 1.3 3.8 1.1 2.2 2.2 4.4 2.9 7.2 1.7 6.8-1.2 10.4-1.2 10.4z"/><path fill="#fefefe" d="m393.3 306.5c0 0-4.3-3.3-4.9-7.7-0.9-7.4 3.1-11.2 3.1-11.2 0 0 0.3 1.7 1 3.4 0.9 2 1.8 3.9 2.4 6.4 1.2 6-1.6 9.1-1.6 9.1z"/><path fill="#fefefe" d="m401.3 299.5c0 0-3.7-3.2-4-7.1-0.4-6.6 3.3-9.9 3.3-9.9 0 0 0.2 1.6 0.8 3.1 0.7 1.8 1.4 3.6 1.7 5.9 0.9 5.4-1.8 8-1.8 8z"/><path fill="#fefefe" d="m409 291c0 0-3.3-2.2-3.9-5.3-1.1-5.3 1.6-8.3 1.6-8.3 0 0 0.3 1.3 0.9 2.4 0.7 1.4 1.5 2.8 2 4.6 1.3 4.3-0.6 6.6-0.6 6.6z"/><path fill="#fefefe" d="m414.7 283.8c0 0-2.7-1.6-3.4-4-1.1-4 0.9-6.5 0.9-6.5 0 0 0.3 1 0.8 1.9 0.7 1 1.3 2.1 1.8 3.4 1.2 3.3-0.1 5.2-0.1 5.2z"/><path fill="#fefefe" d="m202 606.8c4.3-2.8 10.2-6 12.4-7.2 10.7 2.2 21.5 5.5 32.9 10.1-1.6 1.1-3.4 2.5-4.8 3.5-3.2 2-6.1 3.8-7.2 4.5-18.9-1.9-33.9-3.9-40.8-4.9 2-1.9 4.7-4.2 7.5-6z"/><path fill="#fefefe" d="m407.7 636.3c1.2 10.2 1.9 15 2.6 18.1-10.4 2-58.2 10.8-111.3 10.8-53.1 0-101-8.8-111.3-10.8 0.7-3.1 1.3-7.9 2.5-18.1 1.1-8.4 1.8-16.6 2-19.9 10.9 1.7 60.8 8.8 106.8 8.8 46 0 95.9-7.1 106.8-8.8 0.2 3.3 0.8 10.8 1.9 19.9z"/><path fill="#fefefe" d="m396 606.8c2.7 1.8 5.5 4.1 7.4 6-6.8 1-21.9 3-40.7 4.9-1.2-0.7-4.1-2.5-7.2-4.5-1.4-1-3.3-2.4-4.8-3.5 11.3-4.6 22.2-7.9 32.9-10.1 2.1 1.1 8.1 4.4 12.4 7.2z"/><path fill="#fff" d="m453.5 228.1c-16.3 1.1-19.1 3.2-19.5 4.2 1.2 0.7 5.4 1.3 8.2 1.8 4.6 0.7 9.5 1.4 12.8 3.2v-9.3q-0.7 0-1.5 0.1z"/><path fill="#fefefe" d="m451.1 210.8c-16.5-1-31.8-0.9-48.8-0.5-54.5 1.2-109.7 7.9-152.2 13.7-33.6 4.7-62.6 8.7-88.6 9.3-20.8 0.4-34.7-4.6-36.4-9.6-0.1-5.4-0.1-30.1 0-37.4 6.2 4.4 18.3 5 22.7 5.1 2.3 0 4.7-0.1 7.1-0.1 25.5-0.6 54.1-4.6 87.2-9.3 40.4-5.7 93.3-12.2 143.4-13.3 17.5-0.3 34.8 0 51.4 1 1.1 0.1 2.5 0.2 4.2 0.4 8.7 0.7 29.1 2.3 30.8 9.3 0.5 13.4 0.4 23 0.1 35.9-4.7-2.7-12.6-4.1-20.9-4.5z"/><path fill="#fefefe" d="m224.2 171c-0.1-5.6 9.5-6.4 13.6-6.5 6.3-0.1 14 1 14.1 7.1l0.1 5q-5.3 0.7-10.5 1.5-8.7 1.2-17 2.4z"/><path fill="#fefefe" d="m192.8 176.2c2.7 0.7 7.2 1.6 13.8 1.5 6.5-0.2 11-1.7 13.7-3.1l0.2 6.4c-9.6 1.3-18.7 2.5-27.5 3.5z"/><path fill="#fefefe" d="m159.1 166.3c0 0 0.7-0.1 1.8-0.1 16.3-0.3 27.7 2.2 27.8 6.1l0.1 1 0.2 11.6c-12 1.3-23.4 2.2-34.2 2.4-2.4 0.1-4.7 0.1-6.9 0.1-10.8-0.1-22.6-2.8-23-8.3-0.1-6 11.6-12.3 34.2-12.8z"/><path fill="#fefefe" d="m360.4 223.4l-0.2-7.1q9-0.7 18.3-1.1l0.2 7.1c-4.5-1-13.2-2.2-18.3 1.1z"/><path fill="#fefefe" d="m453.3 224.1c-10.7 0.7-16.4 1.9-19.5 3.3l-0.3-13.2c5.7 0.1 11.5 0.2 17.4 0.5 11.6 0.6 18.9 3.4 21 5.5-1 0.9-4.8 3-18.6 3.9z"/><path fill="#fefefe" d="m371.1 238.8c24.4-3.2 45.4-13.2 45.4-13.2 0 0 4.4 10.2 13.1 21.1 16.8 0 24.8-2.5 25.3-4-0.1-2.7-8.3-3.9-13.3-4.7-6.7-1-11.6-1.8-11.7-5.4l-0.4-18.5c-8.8-0.1-17.7 0-27.1 0.2q-10.1 0.2-19.9 0.7l0.3 12.5-2.6-0.7c-3.6-1-13.9-3-18 0.2-1.2 0.9-1.7 2.2-1.7 4.1 0.1 1.3 1.2 4.5 10.6 7.7z"/><path fill="#0e4d91" d="m148.2 223.7q-0.3 0.1-0.7 0c-6.9-0.2-11.5-5.4-11.3-12.5 0.3-7 5.3-11.9 12.1-11.7 4.4 0.2 6.9 2.2 8 3.4l0.2 0.2-1.8 3.3-0.4-0.5c-0.7-1-3-2.7-6-2.8-4.6-0.2-7.9 3.2-8.1 8.2-0.2 5 2.9 8.6 7.5 8.8 2.6 0.1 4.9-0.8 6.4-2.5l0.4-0.3 1.6 3.1-0.2 0.1c-1.3 1.5-3.7 3.2-7.7 3.2z"/><path fill="#0e4d91" d="m168.4 224.3c-6.7 0-11.6-5.1-11.7-12-0.1-3.6 1.1-6.7 3.4-8.9 2.1-2.2 5-3.3 8.2-3.4h0.2c6.7 0 11.6 5.1 11.7 12 0.1 3.6-1.1 6.7-3.4 8.9-2.1 2.1-5 3.3-8.2 3.4zm0-20.8h-0.1c-2.2 0.1-4.1 0.9-5.5 2.4-1.5 1.5-2.3 3.7-2.3 6.3 0.1 4.9 3.3 8.4 7.9 8.4h0.1c2.1 0 4.1-0.8 5.5-2.3 1.5-1.6 2.3-3.8 2.3-6.3-0.1-5-3.3-8.5-7.9-8.5z"/><path fill="#0e4d91" d="m184.4 223.3l-2.5-23.4 3.8-0.4 13.7 15.7c-0.1-1.1-0.3-2.8-0.5-4.6l-1.3-12.4 3.7-0.4 2.5 23.4-3.6 0.4-13.9-15.9c0.2 1.1 0.4 3 0.6 4.7l1.3 12.5z"/><path fill="#0e4d91" d="m207.9 220.6l-3.2-23.3 12.9-1.8 0.4 3.4-9 1.3 0.9 6.8 8.5-1.2 0.5 3.4-8.5 1.1 1.3 9.8z"/><path fill="#0e4d91" d="m231.6 217.5c-5.9 0-10.6-4.2-11.5-10.4-0.5-3.6 0.2-6.8 2.2-9.3 1.8-2.4 4.5-4 7.7-4.4q0.9-0.2 1.9-0.2c6 0 10.6 4.2 11.5 10.5 0.5 3.5-0.2 6.7-2.2 9.3-1.8 2.3-4.5 3.9-7.7 4.4q-0.9 0.1-1.9 0.1zm0.1-20.7q-0.6 0-1.2 0.1c-2.1 0.3-4 1.3-5.1 3-1.3 1.7-1.8 4-1.4 6.5 0.6 4.5 3.7 7.4 7.8 7.4q0.6 0 1.2-0.1c2.1-0.3 3.9-1.3 5.1-3 1.3-1.8 1.8-4 1.4-6.5-0.6-4.5-3.7-7.4-7.8-7.4z"/><path fill="#0e4d91" d="m247.7 214.9l-3.2-23.3 6.6-0.9c2.3-0.3 4.2 0 5.7 0.9 1.6 1 2.7 2.7 2.9 4.8 0.6 3.7-1.5 6.1-3.8 7l7.7 9.3-4.6 0.7-7.1-9-1.7 0.3 1.3 9.7zm1.1-20.5l0.9 6.9 1.9-0.3c1.5-0.2 2.6-0.4 3.4-1.1 0.8-0.8 1-1.7 0.9-3-0.2-1.2-0.7-2-1.6-2.5-0.9-0.5-1.9-0.5-3.6-0.3z"/><path fill="#0e4d91" d="m268.6 212.1l-2.5-19.9-6.2 0.8-0.4-3.4 16.2-2.1 0.4 3.4-6.2 0.8 2.6 19.9z"/><path fill="#0e4d91" d="m275.6 211.2l6.5-24.5 3.2-0.4 12 22.4-4.3 0.5-2.9-5.6-8.9 1-1.6 6.1zm8.7-19.2l-2.3 9.1 6.6-0.8z"/><path fill="#0e4d91" d="m298.5 208.6l-2.4-23.4 6.5-0.7c2.3-0.2 4.3 0.2 5.7 1.1 1.6 1.1 2.6 2.8 2.8 4.9 0.4 3.8-1.8 6-4.1 6.9l7.4 9.6-4.6 0.4-6.7-9.1-1.8 0.2 1 9.7zm1.8-20.4l0.7 6.9 1.9-0.2c1.4-0.1 2.5-0.3 3.4-1.1 0.8-0.7 1.1-1.6 0.9-2.8-0.1-1.3-0.6-2.1-1.5-2.6-0.5-0.4-1.2-0.5-2-0.5-0.5 0-1 0-1.5 0.1z"/><path fill="#0e4d91" d="m315.6 206.9l-2.1-23.5 13.6-1.2 0.3 3.4-9.8 0.9 0.6 6 9.2-0.8 0.3 3.4-9.2 0.8 0.6 7.2 10.1-0.9 0.3 3.4z"/><path fill="#0e4d91" d="m338.8 204.8l-1.8-23.4 13.6-1.1 0.3 3.5-9.8 0.7 0.5 6 9.2-0.7 0.3 3.4-9.3 0.7 0.6 7.2 10-0.8 0.3 3.5z"/><path fill="#0e4d91" d="m360.9 203.6c-3.7 0-6.1-2.4-7.1-3.5l-0.2-0.2 2.2-2.9 0.3 0.4c1.1 1.4 3.2 2.9 5.5 2.7 1.1 0 2-0.4 2.7-1.1 0.7-0.6 1-1.5 1-2.6-0.2-2-2.3-2.7-3.5-3.1l-0.1-0.1c-1.2-0.4-2.8-0.9-3.6-1.3q-1.5-0.5-2.5-1.5-1.6-1.6-1.8-4.1c-0.1-1.8 0.6-3.5 1.9-4.8 1.2-1.3 3-2 5.2-2.1q0.3 0 0.5 0 3.5 0 6.3 2.6l0.2 0.2-1.9 2.9-0.3-0.3c-1.6-1.4-3.1-2.1-4.8-2-1 0.1-1.8 0.4-2.4 0.9q-0.9 0.8-0.8 2.1c0.1 1.9 1.4 2.5 2.8 3l4.1 1.4c0.5 0.2 2 0.9 2.8 1.8 1 1.2 1.6 2.5 1.7 4 0.1 2-0.6 3.9-2.1 5.4q-2.1 2-5.5 2.2-0.3 0-0.6 0z"/><path fill="#0e4d91" d="m376.4 202.3l-1.1-20.1-6.2 0.4-0.2-3.4 16.3-0.9 0.2 3.4-6.2 0.3 1.1 20.1z"/><path fill="#0e4d91" d="m397 201.6c-6.6 0-11.4-4.8-11.7-11.6-0.3-7 4.5-12.3 11.3-12.6q0.2 0 0.5 0c6.6 0 11.4 4.8 11.7 11.7 0.3 7-4.5 12.3-11.3 12.5q-0.2 0-0.5 0zm0.1-20.7q-0.2 0-0.4 0c-4.6 0.2-7.7 3.8-7.5 8.9 0.2 4.8 3.4 8.2 7.8 8.2q0.2 0 0.4 0c4.6-0.2 7.7-3.8 7.5-8.8-0.2-5-3.3-8.3-7.8-8.3z"/><path fill="#0e4d91" d="m427.2 201.5l-3.3-0.2-7.5-23.8 4.2 0.1 5.2 17.6 6.6-17.1 4.1 0.2z"/><path fill="#0e4d91" d="m440.7 202.2l-3.8-0.3 1.8-23.4 3.9 0.3z"/><path fill="#0e4d91" d="m460.7 204.1l-4.6-0.5-4.6-10.4-1.8-0.2-1.1 9.8-3.8-0.5 2.6-23.3 6.6 0.7q3.4 0.4 5.3 2.3c1.3 1.3 1.9 3.2 1.7 5.3-0.4 3.8-3 5.5-5.5 5.9zm-10.6-14.5l1.9 0.3c0.5 0 1.1 0.1 1.6 0.1 0.8 0 1.4-0.2 1.9-0.5 1-0.6 1.4-1.3 1.6-2.6 0.1-1.2-0.2-2.1-1-2.8-0.8-0.8-1.9-1-3.4-1.2l-1.9-0.2z"/><path fill="#fefefe" d="m92.1 530.4q3.3-0.2 6.2-0.2c12.7 0 16.1 3.6 16.4 5v0.2-0.1q0 0.5 0 1v0.1c-0.1 1.4-0.4 4.8-22.9 8.9z"/><path fill="#fefefe" d="m90.2 549.7q0.9-0.2 1.8-0.3c12.6-2.3 19.2-4.5 22.7-6.7v13.9c-4.1 1-8.2 2.1-12.4 3.2-17.1 4.6-19.4 4.7-22.5 4.8q-0.3 0-0.6 0c-1.2 0-6.9-0.2-8.8-3.6q0-0.1-0.1-0.3 0-0.1-0.1-0.3c0-2.9 0.8-7 20-10.7z"/><path fill="#fefefe" d="m182.3 592.3c-21.7 0-44.5 4-76.2 13.2l-0.4 0.1c-5.8 1.7-9.6 2.7-16.2 3.5-1.4 0.2-2.9 0.3-4.3 0.3-5.1 0-13.7-1-14.5-7.5-0.1-15.2-0.2-19.4-0.3-30.3l-0.1-5.2c3.2 2 7.3 2.2 8.9 2.2q0.4 0 0.7 0c3.9-0.1 6.7-0.4 23.4-4.9 4.7-1.3 9.3-2.5 13.9-3.6 26-6.3 46.1-9.2 64.9-9.2 23.1 0 45.4 4.4 71.9 14.2-0.6 6.2-3.3 28.7-4.9 41-17.7-7.2-34.4-11.4-50.9-13-5.2-0.5-10.6-0.8-15.9-0.8z"/><path fill="#fefefe" d="m483.3 535.3v0.1-0.2c0.2-1.4 3.6-5 16.4-5q2.9 0 6.2 0.2l0.2 14.9c-22.5-4.1-22.7-7.5-22.8-8.9v-0.1q-0.1-0.5 0-1z"/><path fill="#fefefe" d="m527.6 571.6c-0.2 10.9-0.2 15.1-0.4 30.3-0.8 6.5-9.3 7.5-14.4 7.5-1.5 0-3-0.1-4.4-0.3-6.5-0.8-10.3-1.8-16.2-3.5l-0.3-0.1c-31.8-9.2-54.6-13.2-76.2-13.2-5.4 0-10.7 0.3-16 0.8-16.5 1.6-33.1 5.8-50.8 13-1.5-11.3-4.3-34.8-5-41 26.6-9.8 48.8-14.2 71.9-14.2 18.9 0 38.9 2.9 65 9.2 4.5 1.1 9.2 2.3 13.8 3.6 16.8 4.5 19.6 4.8 23.4 4.9q0.3 0 0.7 0c1.6 0 5.7-0.2 9-2.2z"/><path fill="#fefefe" d="m527.6 560.7q0 0.2-0.1 0.3c-1.9 3.4-7.6 3.6-8.8 3.6q-0.3 0-0.5 0c-3.2-0.1-5.4-0.2-22.6-4.8-4.1-1.1-8.3-2.2-12.3-3.2l-0.1-13.9c3.5 2.2 10.1 4.4 22.7 6.7q1 0.1 1.9 0.3c19.1 3.7 19.9 7.8 20 10.7q-0.1 0.2-0.2 0.3z"/><path fill="#0e4d91" d="m100.5 599.2c-3.7 0-6.2-1.9-7.5-2.9l-0.4-0.3 2.4-3.8 0.5 0.4c0.6 0.6 2.8 2.3 5.5 2.3q0.6 0 1.1-0.1c2.2-0.4 4.2-1.9 3.8-4.4-0.4-2-2.9-2.5-4.3-2.7h-0.1c-1.5-0.3-3.4-0.6-4.5-0.9q-1.8-0.4-3.1-1.3-2.2-1.5-2.7-4.4c-0.4-2 0.2-4 1.6-5.7 1.3-1.5 3.4-2.6 5.9-3.1q1.1-0.2 2.1-0.2c3.3 0 5.6 1.5 6.3 2l0.5 0.4-2.1 3.8-0.5-0.4c-2-1.4-3.8-1.8-5.7-1.5-1.2 0.3-2.1 0.7-2.7 1.3q-0.9 0.9-0.6 2.3c0.3 1.6 1.6 2.2 3.5 2.6l5.1 0.9c0.6 0.2 2.4 0.7 3.5 1.6 1.4 1.1 2.3 2.5 2.6 4.2 0.4 2.3-0.2 4.5-1.8 6.4-1.5 1.7-3.6 2.8-6.3 3.3q-1 0.2-2.1 0.2z"/><path fill="#0e4d91" d="m113.4 595.5l4.6-28.1 3.9-1 17.1 22.8-5.3 1.3-4.1-5.6-10.1 2.4-1 7zm8-22.2l-1.4 9.6 7.1-1.8z"/><path fill="#0e4d91" d="m149.3 587.7c-6.9 0-12.1-4.4-13.2-11.2-0.7-3.8 0.2-7.5 2.4-10.4 2.1-2.7 5.4-4.6 9.2-5.2q1.4-0.3 2.8-0.3c3.4 0 5.9 1.2 7.3 2.1l0.4 0.3-1.6 4.3-0.6-0.6c-1-0.8-3.2-1.7-5.8-1.7q-0.8 0-1.7 0.1c-2.5 0.4-4.7 1.7-6 3.5-1.4 1.9-1.9 4.3-1.5 7 0.8 4.6 4.2 7.6 8.7 7.6q0.9 0 1.8-0.1c2.9-0.5 5.3-1.9 6.7-4l0.5-0.7 2.8 3.2-0.2 0.4c-1.4 2.1-4.1 4.7-9.3 5.5q-1.3 0.2-2.7 0.2z"/><path fill="#0e4d91" d="m164.5 585.3l-1.4-26.2 8-0.4c2.7-0.1 5 0.4 6.7 1.5 1.9 1.3 3 3.3 3.1 5.6 0.2 4.2-2.3 6.6-5.1 7.6l8.2 10.9-6 0.3-7.3-10.4-1.9 0.1 0.6 10.7zm3.7-22.3l0.4 7.2 2.1-0.1c1.7-0.1 3-0.2 4-1 0.9-0.7 1.3-1.6 1.2-2.9-0.1-1.3-0.5-2.1-1.5-2.7-0.7-0.5-1.5-0.6-2.8-0.6q-0.6 0-1.3 0z"/><path fill="#0e4d91" d="m202.2 585.6l-16.8-1.2 1.7-26.1 16.5 1.1-0.3 4.2-11.5-0.8-0.5 6.2 11 0.7-0.3 4.2-10.9-0.7-0.5 7.4 11.9 0.8z"/><path fill="#0e4d91" d="m217.3 588q-1.9 0-3.8-0.4l-8.3-1.7 5.3-25.7 8.4 1.8c5.5 1.1 8.3 4.2 9.2 5.4 1.6 2.1 3.2 5.5 2.2 10.4-1 4.8-3.9 7.3-6.1 8.6-1.9 1-4.4 1.6-6.9 1.6zm-6.4-5.3l3.5 0.7q1.3 0.3 2.6 0.3c1.6 0 3.1-0.4 4.2-1 2.3-1.4 3.7-3.3 4.2-6 0.6-2.6 0.1-5-1.5-7.1-0.7-1-2.4-2.7-5.9-3.5l-3.5-0.7z"/><path fill="#0e4d91" d="m377.3 588.8l-4.4-25.8 4.9-0.9 1.7 10.2 12.4-2.1-1.7-10.2 4.9-0.8 4.3 25.8-4.8 0.9-2-11.5-12.4 2.1 1.9 11.5z"/><path fill="#0e4d91" d="m403.5 584.8l-0.6-26.2 16.5-0.4 0.1 4.2-11.6 0.3 0.2 6.2 10.9-0.3 0.1 4.2-10.9 0.3 0.1 7.4 11.9-0.3 0.1 4.2z"/><path fill="#0e4d91" d="m449.2 587.6l-5.4-0.7-1.9-6.8-10.3-1.2-3.4 6.1-5.2-0.6 14.2-24.7 4 0.4zm-15.6-12.6l7.3 0.9-2.6-9.3z"/><path fill="#0e4d91" d="m470.8 591.8l-5.8-1.2-4.5-11.9-1.8-0.4-2.2 10.5-4.8-1 5.3-25.6 7.8 1.6c2.7 0.6 4.8 1.6 6.1 3.2 1.5 1.7 2.1 3.9 1.6 6.2-0.8 4.1-4 5.7-6.9 6zm-11.3-17.6l2.1 0.4c1 0.3 1.8 0.4 2.5 0.4 0.6 0 1.1-0.1 1.6-0.3 1.1-0.5 1.6-1.2 1.9-2.5 0.3-1.3 0-2.2-0.8-3-0.9-1-2.1-1.3-3.8-1.6l-2-0.4z"/><path fill="#0e4d91" d="m482.6 595.1l-4.7-1.3 5.7-21.3-7.1-1.9 1.1-4 18.9 5.1-1 4.1-7.1-2z"/><path fill="#0e4d91" d="m475.9 179l-0.1-0.3c-1.9-9.2-18.7-11.3-34.4-12.6-1.6-0.2-3.1-0.3-4.1-0.4h-0.1c-16.8-1-34.2-1.3-51.8-0.9-44.4 0.9-92.5 6.1-129.4 11.2l-0.1-4.5c-0.2-7.3-6.6-11.2-18.2-11-10.6 0.3-16.8 3.7-17.4 9.5-1.5 1.1-5.9 3.5-13.8 3.7-7.5 0.1-11.9-1.1-13.8-1.8-0.3-4.4-5.1-7.3-14.1-8.7-6.7-1.1-14-1.1-17.8-1-1.1 0-1.8 0.1-1.8 0.1-23.4 0.5-38.3 7.1-38.1 16.9q0 0 0 0.1v0.1c0.2 8.9 0 39.6 0.2 44.9l0.1 0.4c2.2 8 18.4 13.1 40.4 12.6 26.2-0.6 55.3-4.6 89-9.3 30-4.1 69.8-8.7 105.6-11.4l0.3 12.6c0 0 0 1.5 0.1 3.3q0 0.7 0.2 1.3 1.3 3.2 6 5.8 4.2-0.2 8.3-0.8c-9.4-3.2-10.5-6.4-10.6-7.7 0-1.9 0.5-3.2 1.7-4.1 4.1-3.2 14.4-1.2 18-0.2l2.6 0.7-0.3-12.5q9.8-0.5 19.9-0.7c9.4-0.2 18.3-0.3 27.1-0.2l0.4 18.5c0.1 3.6 5 4.4 11.7 5.4 5 0.8 13.2 2 13.3 4.7-0.5 1.5-8.5 4-25.3 4q1.6 1.9 3.4 3.9 0.3 0 0.5 0c12.1-0.3 20.8-1.9 23.8-4.7 1.1-1 1.5-2.1 1.6-2.9q0-0.2 0-0.4 0-0.1 0-0.1v-14.9c9.5-0.9 14.7-2.7 16.4-5.5 0.5-0.7 0.6-1.1 0.6-1.7h0.1l-0.1-0.4q0-0.1 0-0.1 0 0 0-0.1l0.1-5.7c-0.1-12.8 0.3-21.4-0.1-35.1zm-238.1-14.5c6.3-0.1 14 1 14.1 7.1l0.1 5q-5.3 0.7-10.5 1.5-8.7 1.2-17 2.4l-0.3-9.5c-0.1-5.6 9.5-6.4 13.6-6.5zm234.2 50.8c-4.7-2.7-12.6-4.1-20.9-4.5-16.5-1-31.8-0.9-48.8-0.5-54.5 1.2-109.7 7.9-152.2 13.7-33.6 4.7-62.6 8.7-88.6 9.3-20.8 0.4-34.7-4.6-36.4-9.6-0.1-5.4-0.1-30.1 0-37.4 6.2 4.4 18.3 5 22.7 5.1 2.3 0 4.7-0.1 7.1-0.1 25.5-0.6 54.1-4.6 87.2-9.3 40.4-5.7 93.3-12.2 143.4-13.3 17.5-0.3 34.8 0 51.4 1 1.1 0.1 2.5 0.2 4.2 0.4 8.7 0.7 29.1 2.3 30.8 9.3 0.5 13.4 0.4 23 0.1 35.9zm-312.9-49c0 0 0.7-0.1 1.8-0.1 16.3-0.3 27.7 2.2 27.8 6.1l0.1 1 0.2 11.6c-12 1.3-23.4 2.2-34.2 2.4-2.4 0.1-4.7 0.1-6.9 0.1-10.8-0.1-22.6-2.8-23-8.3-0.1-6 11.6-12.3 34.2-12.8zm201.3 57.1l-0.2-7.1q9-0.7 18.3-1.1l0.2 7.1c-4.5-1-13.2-2.2-18.3 1.1zm94.6 13.9c-3.3-1.8-8.2-2.5-12.8-3.2-2.8-0.5-7-1.1-8.2-1.8 0.4-1 3.2-3.1 19.5-4.2q0.8-0.1 1.5-0.1zm-1.7-13.1c-10.7 0.7-16.4 1.8-19.5 3.2l-0.3-13.2c5.7 0.1 11.5 0.3 17.4 0.6 11.6 0.6 18.9 3.3 21 5.5-1 0.8-4.8 2.9-18.6 3.9zm-246.7-46.5c6.5-0.1 11-1.7 13.7-3l0.2 6.4c-9.6 1.3-18.7 2.4-27.5 3.4l-0.2-8.3c2.7 0.8 7.2 1.7 13.8 1.5z"/><path fill="#0e4d91" d="m241.6 654.6q-0.9 0-1.8-0.1c-7.3-0.8-11.9-6.6-11-14.1 0.7-6.7 5.7-11.2 12.3-11.2q0.8 0 1.6 0.1c4.7 0.5 7.3 2.8 8.4 4.2l0.2 0.3-2.4 3.7-0.5-0.8c-0.7-1.1-2.9-3-6-3.4-4.8-0.5-8.5 2.6-9.1 7.6-0.2 2.5 0.3 4.7 1.6 6.4 1.3 1.7 3.3 2.8 5.6 3q0.6 0.1 1.2 0.1c2.7 0 4.5-1.1 5.6-2l0.6-0.5 1.6 3.7-0.3 0.3c-1.4 1.2-3.8 2.7-7.6 2.7z"/><path fill="#0e4d91" d="m264.1 656.6q-0.5 0-1 0c-3.4-0.3-6.5-1.7-8.7-4-2.3-2.5-3.4-5.8-3.1-9.6 0.5-7 5.6-11.8 12.6-11.8q0.4 0 0.9 0c7.4 0.5 12.3 6.2 11.9 13.5-0.5 7-5.7 11.9-12.6 11.9zm-0.2-21.4c-4.5 0-7.7 3.3-8 8.1-0.2 2.5 0.5 4.8 1.9 6.4 1.4 1.6 3.4 2.5 5.6 2.7 4.8 0.3 8.4-3 8.7-8.1 0.3-5-2.8-8.8-7.6-9.1q-0.3 0-0.6 0z"/><path fill="#0e4d91" d="m292.5 657.3l-12.8-0.3 0.7-24.7 4.5 0.1-0.6 20.7 8.3 0.2z"/><path fill="#0e4d91" d="m294.9 657.3l-0.1-24.6 4.5-0.1 0.1 20.7h8.3v4z"/><path fill="#0e4d91" d="m310.1 657.2l-0.8-24.6 14.9-0.5 0.2 3.9-10.5 0.4 0.2 5.8 9.9-0.3 0.1 3.9-9.8 0.3 0.2 7 10.7-0.4 0.1 4z"/><path fill="#0e4d91" d="m339.5 656.2c-6.7 0-11.8-4.9-12.4-11.8-0.5-7.3 4.3-13 11.6-13.6 5.9-0.4 8.9 2.3 10 3.3l0.6 0.6-2.9 3.2-0.4-0.5c-1.8-1.8-3.8-2.6-6.2-2.6q-0.4 0-0.8 0c-4.8 0.4-7.7 4.1-7.3 9.3 0.4 5.1 3.9 8.3 8.8 8 3.7-0.3 5.4-1.8 5.8-2.3l-0.3-4.3-6.3 0.5-0.3-3.9 10.7-0.8 0.8 9.9-0.3 0.3c-2.2 2.7-5.7 4.3-10 4.6q-0.5 0.1-1.1 0.1z"/><path fill="#0e4d91" d="m355.4 654.4l-3.1-24.5 14.9-1.9 0.4 4-10.3 1.3 0.7 5.7 9.8-1.2 0.5 3.9-9.8 1.2 0.9 6.9 10.6-1.3 0.5 4z"/><path fill="#0e4d91" d="m510.1 546.1l-0.3-19.4-1.8-0.1c-3-0.3-5.8-0.4-8.3-0.4-19.3 0-20.4 7.7-20.4 8.9q0 0.3 0 0.7h-0.1l0.1 19.8c-25.2-6-44.9-8.7-63.5-8.7-24 0-47.1 4.6-74.7 15l-1.5 0.5 0.2 1.6c0 0.3 5.8 46.8 5.8 46.8 0.2 0.1 4.6 3.6 7.7 5.7q1.5 1 2.8 1.8c-17.5 1.6-37.7 2.9-57.1 2.9-19.5 0-39.6-1.3-57.1-2.9q1.3-0.8 2.8-1.8c3.1-2.1 7.6-5.7 7.8-5.8 0 0 5.7-46.4 5.7-46.7l0.2-1.6-1.5-0.5c-27.7-10.4-50.8-15-74.8-15-18.5 0-38.2 2.7-63.4 8.7l0.1-19.8h-0.1q0-0.4 0-0.7c-0.1-1.2-1.1-8.9-20.4-8.9-2.6 0-5.4 0.1-8.4 0.4l-1.8 0.1-0.3 19.4c-18 3.7-21.6 8.2-21.6 14.7v0.3l0.2 10.5c0.1 11 0.2 15.1 0.3 30.5l0.1 0.2c0.7 7 7.4 11.1 18.4 11.1 1.6 0 3.2-0.1 4.8-0.3 6.8-0.8 11-2 16.8-3.6l0.4-0.1c31.4-9.2 53.8-13.1 75.1-13.1q2.6 0 5.3 0.1c0 0 2.5 0 5.3 0.2 2.9 0.2 5.4 0.5 5.4 0.5q4.9 0.5 9.9 1.3c-2.6 1.5-5.8 3.3-8.4 5-5.6 3.6-11.2 8.2-11.4 8.4l-0.1 2.3c0 0-0.3 9.8-2 21.7-2 13.9-3 19.7-3 19.7l-0.5 2.1 2 0.4c0.6 0.1 54.2 11.2 114.2 11.2 60 0 113.6-11.1 114.1-11.2l2.1-0.4-0.5-2.1c-0.1 0-1.4-5.8-3-19.7-1.4-11.8-2-21.7-2-21.7l-0.1-2.3c-0.2-0.2-5.9-4.8-11.4-8.4-2.6-1.7-5.8-3.5-8.4-5q5-0.8 9.9-1.3c0 0 2.3-0.2 5.2-0.4 2.9-0.2 5.4-0.3 5.4-0.3q2.7-0.1 5.4-0.1c21.2 0 43.7 3.9 75.1 13.1l0.4 0.1c5.7 1.6 9.9 2.8 16.8 3.6 1.5 0.2 3.2 0.3 4.8 0.3 10.9 0 17.6-4.1 18.4-11.1v-0.2c0.2-15.4 0.2-19.5 0.4-30.5l0.2-10.5v-0.3c0-6.5-3.6-11-21.7-14.7zm-26.8-10.8v0.1-0.2c0.2-1.4 3.6-5 16.4-5q2.9 0 6.2 0.2l0.2 14.9c-22.5-4.1-22.7-7.5-22.8-8.9v-0.1q-0.1-0.5 0-1zm-391.2-4.9q3.3-0.2 6.2-0.2c12.7 0 16.1 3.6 16.4 5v0.2-0.1q0 0.5 0 1v0.1c-0.1 1.4-0.4 4.8-22.9 8.9zm-1.9 19.3q0.9-0.2 1.9-0.4c12.6-2.2 19.2-4.4 22.7-6.6v13.9c-4.1 1-8.3 2.1-12.4 3.2-17.2 4.6-19.4 4.7-22.5 4.8q-0.3 0-0.6 0c-1.2 0-6.9-0.2-8.8-3.7q-0.1-0.1-0.1-0.2-0.1-0.2-0.2-0.3c0.1-2.9 0.9-7 20-10.7zm108.1 43.4c-5.2-0.6-10.6-0.8-16-0.8-21.6 0-44.4 3.9-76.1 13.2l-0.4 0.1c-5.8 1.6-9.7 2.7-16.2 3.5-1.4 0.1-2.9 0.2-4.4 0.2-5 0-13.6-0.9-14.4-7.4-0.1-15.3-0.2-19.4-0.4-30.4l-0.1-5.1c3.3 2 7.4 2.2 9 2.2q0.4 0 0.7 0c3.8-0.1 6.6-0.4 23.4-4.9 4.7-1.3 9.3-2.5 13.8-3.6 26.1-6.3 46.1-9.2 65-9.2 23.1 0 45.3 4.4 71.9 14.2-0.7 6.2-3.2 29.2-5 40.9-17.7-7.1-34.3-11.3-50.8-12.9zm3.7 13.7c4.3-2.8 10.3-6.1 12.4-7.2 10.7 2.2 21.6 5.5 32.9 10-1.5 1.2-3.3 2.6-4.8 3.5-3.1 2.1-6 3.9-7.2 4.6-18.8-1.9-33.9-4-40.7-5 2-1.8 4.7-4.1 7.4-5.9zm205.8 29.5c1.2 10.1 1.9 14.9 2.6 18.1-10.4 2-58.3 10.8-111.4 10.8-53 0-100.9-8.8-111.3-10.8 0.7-3.2 1.4-8 2.6-18.1 1-8.4 1.7-16.6 1.9-19.9 11 1.7 60.8 8.8 106.8 8.8 46.1 0 95.9-7.1 106.9-8.8 0.2 3.3 0.8 10.8 1.9 19.9zm-11.8-29.5c2.8 1.7 5.5 4.1 7.5 5.9-6.8 1-21.9 3.1-40.7 5-1.2-0.7-4.1-2.5-7.2-4.6-1.5-0.9-3.3-2.3-4.9-3.5 11.4-4.5 22.3-7.8 33-10 2.1 1.1 8.1 4.4 12.3 7.2zm131.7-35.3c-0.2 11-0.3 15.1-0.4 30.4-0.8 6.5-9.4 7.4-14.4 7.4-1.5 0-3-0.1-4.4-0.2-6.5-0.8-10.4-1.9-16.2-3.5l-0.4-0.1c-31.7-9.3-54.5-13.2-76.1-13.2-5.4 0-10.8 0.2-16 0.8-16.5 1.6-33.2 5.8-50.8 12.9-1.8-11.7-4.4-34.7-5-40.9 26.5-9.8 48.8-14.2 71.9-14.2 18.8 0 38.9 2.9 64.9 9.2 4.6 1.1 9.2 2.3 13.9 3.6 16.8 4.5 19.5 4.8 23.4 4.9q0.3 0 0.7 0c1.6 0 5.7-0.2 8.9-2.2zm0.1-10.8q-0.1 0.1-0.1 0.2c-1.9 3.4-7.6 3.6-8.8 3.6q-0.3 0-0.6 0c-3.1-0.1-5.4-0.2-22.5-4.8-4.2-1.1-8.3-2.2-12.4-3.2v-13.9c3.5 2.2 10.1 4.4 22.7 6.7q0.9 0.1 1.8 0.3c19.1 3.7 20 7.8 20 10.7q-0.1 0.2-0.1 0.4z"/></svg>